<svg xmlns="http://www.w3.org/2000/svg" viewBox="0 0 335.1 136.14"><path d="M167.55,1C76.33,1,2.34,31,2.34,68.06s74,67.13,165.21,67.13,165.22-30,165.22-67.13S258.88,1,167.55,1Zm0,127.57c-79.34,0-143.74-27.19-143.74-60.46s64.4-60.4,143.74-60.4,143.78,27,143.78,60.4S247,128.52,167.55,128.52Z"/><path d="M54.49,96.73c2.24,2.7,20.23,10.63,40-41.82,0,0-1.69,20.91-1.17,29.94s2.26,22.28,14.12,9.14,21.72-41.82,21.72-41.82-5.64,34.42,0,40.55,12.22,5.41,17.51.25c0,0-6.11-4.35-5.65-14.26s3.33-40,3.77-44.09-10.79-5-24.45,18.61L106.05,79s4.3-26.65,3.11-36.6-7.78-11-12.92-8.18S86,53.67,82.58,62.41,68.32,90.48,54.49,96.73Zm125.15-1.67c2.74,2.76,22,10.77,31-42.56,0,0,2.48,21.23,4.81,30.39s6.65,22.58,15.72,9.24,13.07-42.52,13.07-42.52,1.28,34.93,8.08,41.12,13.15,5.65,17.27.44a21.48,21.48,0,0,1-8.36-14.47c-1.53-10-3.33-40.89-3.71-45.07s-12.92-4.77-21.68,19.2L227,77s-1.07-27-4.19-37.14-9.85-11.13-14.36-8.26-6.17,19.74-7.85,28.65S192,88.79,179.64,95.06Zm17.19-62.74s-7.17-1.3-13.53,10.9a377.22,377.22,0,0,0-15.75,37.2c-.48-7.59,2.28-38.5,5.27-48.1-3.36,0-7-.5-12.19,3.81s-7.86,12.92-8.6,45.15S169.64,93.62,172.4,90,192.42,55.43,196.83,32.32Z"/></svg>