<svg id="Layer_1" data-name="Layer 1" xmlns="http://www.w3.org/2000/svg" viewBox="0 0 144 144"><defs><style>.cls-1{fill:#b71c1c;}.cls-2{fill:#fff;}</style></defs><rect class="cls-1" width="144" height="144"/><path class="cls-2" d="M72,99.91c-3.62-.13-7.25-.22-10.87-.42-3.89-.22-7.77-.65-11.63-1.19a121.4,121.4,0,0,1-18.39-4A70.27,70.27,0,0,1,15.2,87.6a32.39,32.39,0,0,1-7.58-6,16.06,16.06,0,0,1-3.75-6.33,11.94,11.94,0,0,1,1-9.16,20.55,20.55,0,0,1,5-6,41.65,41.65,0,0,1,7.61-5.07A79,79,0,0,1,33.14,49a106.59,106.59,0,0,1,13.08-2.84c3-.45,5.93-.87,8.9-1.19,2.61-.29,5.23-.45,7.84-.61,3.9-.24,7.8-.32,11.7-.21,3.43.09,6.86.21,10.28.49q5.39.42,10.73,1.18a111.31,111.31,0,0,1,22.46,5.5,58.77,58.77,0,0,1,12.43,6.1,26.38,26.38,0,0,1,7.8,7.41,12.78,12.78,0,0,1,2.26,7.23,13,13,0,0,1-2.26,7,24.66,24.66,0,0,1-6.31,6.37,55.18,55.18,0,0,1-13.58,7,101,101,0,0,1-12.76,3.79c-4.22,1-8.47,1.7-12.76,2.25a150.85,150.85,0,0,1-15.6,1.23c-1.78.05-3.57.08-5.36.12ZM67.4,97.06h5a138.76,138.76,0,0,0,15.91-.94,112.87,112.87,0,0,0,12.62-2.19,75.56,75.56,0,0,0,16.92-5.87,36.42,36.42,0,0,0,8.55-5.72,17.56,17.56,0,0,0,4.31-5.73,11.06,11.06,0,0,0,.91-6.11,13,13,0,0,0-2.72-6.16,27,27,0,0,0-7.57-6.5,59.66,59.66,0,0,0-13.8-6,108.91,108.91,0,0,0-21.6-4.23c-3.66-.37-7.32-.6-11-.67A135.66,135.66,0,0,0,53.71,48.1a109.19,109.19,0,0,0-11.06,2,82,82,0,0,0-13.39,4.34,43.37,43.37,0,0,0-10.6,6.25,18.7,18.7,0,0,0-5.35,6.62,10.85,10.85,0,0,0-.78,6.83,14.52,14.52,0,0,0,4.06,7.14,32.61,32.61,0,0,0,7.87,5.83,71.39,71.39,0,0,0,16.79,6.34,99.28,99.28,0,0,0,11.32,2.22c2.57.36,5.15.65,7.74.89C62.65,96.81,65,96.91,67.4,97.06Z"/><path class="cls-2" d="M89.92,65.82c-.51,2.18-1,4.4-1.55,6.59a28.58,28.58,0,0,1-2.81,7.09,10,10,0,0,1-3.44,3.8,4.45,4.45,0,0,1-4.71.16,2.07,2.07,0,0,1-.24-.17l-.12-.05c.67-.5,1.33-.92,1.92-1.43a17.72,17.72,0,0,0,4.12-5.59,30.66,30.66,0,0,0,3-9.53,48.81,48.81,0,0,1,1.44-7.2,10.62,10.62,0,0,1,.72-1.74,3,3,0,0,1,3.11-1.49,4,4,0,0,1,2.79,2.11,10.43,10.43,0,0,1,1.33,4.22c.38,2.9.67,5.81,1,8.71.13,1.25.16,2.51.24,3.77a.82.82,0,0,0,.11.38c.08-.23.16-.45.23-.68,1.21-3.56,2.37-7.13,3.64-10.66a17.67,17.67,0,0,1,3.44-6,6.44,6.44,0,0,1,3.2-2.13,3.07,3.07,0,0,1,1.28,0,.92.92,0,0,1,.82,1c.11,1.44.2,2.89.31,4.34.21,2.81.4,5.63.64,8.45q.24,2.85.58,5.69a8.77,8.77,0,0,0,3.33,6l.1.09a3.71,3.71,0,0,1-4.18,1.56,6,6,0,0,1-4.38-4.44,38.1,38.1,0,0,1-1.21-6.14c-.27-2.4-.45-4.81-.66-7.22,0-.31,0-.62-.06-.94-.18,1-.34,2.07-.54,3.09a53.85,53.85,0,0,1-3.47,11.93,13.68,13.68,0,0,1-2.4,3.82,5,5,0,0,1-.82.71A1.76,1.76,0,0,1,94,83.46a8.31,8.31,0,0,1-1.32-2.56,33.25,33.25,0,0,1-1.5-6.15c-.46-2.9-.84-5.83-1.25-8.74Z"/><path class="cls-2" d="M46.55,76.32c.51-.92,1-1.85,1.54-2.77,1.74-3.1,3.44-6.21,5.24-9.27a21,21,0,0,1,4.6-5.51,7,7,0,0,1,2.83-1.55,1.77,1.77,0,0,1,1.37.09.73.73,0,0,1,.4.78c-.33,3.61-.67,7.22-1,10.83q-.3,3.47-.55,6.93a7.83,7.83,0,0,0,1,4.92c.36.55.8,1,1.21,1.58A4.55,4.55,0,0,1,56.9,83a4.49,4.49,0,0,1-1.72-3.32,36.9,36.9,0,0,1,.11-8.07c.2-1.86.45-3.71.68-5.57,0-.12,0-.23,0-.41-.35.89-.66,1.73-1,2.57a75.23,75.23,0,0,1-4.33,9.28,25.44,25.44,0,0,1-4.38,6,7.94,7.94,0,0,1-1.8,1.3A1.55,1.55,0,0,1,42.18,84a8.44,8.44,0,0,1-.85-3.16,52.54,52.54,0,0,1,0-8.87c.1-1.74.22-3.49.27-5.26l-.16.4a65.77,65.77,0,0,1-4.14,8.93,25.5,25.5,0,0,1-4.56,6.11,9,9,0,0,1-4.14,2.42,4.08,4.08,0,0,1-3.18-.45,3.3,3.3,0,0,1-.33-.27c.42-.24.83-.44,1.22-.68a21.52,21.52,0,0,0,5.92-5.69A37,37,0,0,0,37.64,67.1a44.82,44.82,0,0,1,2.69-6.53,10.14,10.14,0,0,1,1.53-2.23,3.23,3.23,0,0,1,5.43,1.15,9.7,9.7,0,0,1,.53,3.92,98.53,98.53,0,0,1-1.1,11.24c-.08.55-.15,1.1-.23,1.65Z"/><path class="cls-2" d="M74.11,57.12a113.38,113.38,0,0,0-2.17,19.76l.12,0c.24-.64.49-1.27.73-1.91q2.52-6.75,5.7-13.24a9.24,9.24,0,0,1,3.35-4,3.59,3.59,0,0,1,2.35-.62c-.32,1.26-.59,2.52-1,3.75a88.87,88.87,0,0,1-8.84,19.6,11,11,0,0,1-4.47,4.09,3.41,3.41,0,0,1-1.09.36,2.13,2.13,0,0,1-2.33-1.22,8.62,8.62,0,0,1-.87-3.45,58.4,58.4,0,0,1,.11-7.6c.09-2,.26-4.08.48-6.11a16.66,16.66,0,0,1,1.4-5.85,6.19,6.19,0,0,1,5.72-3.6c.24,0,.48,0,.72,0Z"/></svg>