<svg id="content" xmlns="http://www.w3.org/2000/svg" viewBox="0 0 261.81 244.76"><defs><style>.cls-1{fill:#16110d;}.cls-2{fill:#b71c1c;}.cls-3{fill:#fff;}</style></defs><g id="keys"><path class="cls-1" d="M195.87,189.24a24.57,24.57,0,0,0-13-3.72h0a26.39,26.39,0,0,0-13,3.29l-1.87-3A30,30,0,0,1,182.88,182a27.5,27.5,0,0,1,15,4.38Z"/><path class="cls-2" d="M208.17,178.41l-8.1.52-5.45,3.68v3.52h0v2.43l3.74-1.22,1.54-.89-2.16-2.39c3.1-2.49,7.29-2.38,10.75-1.11l2.9-1.7Z"/><path class="cls-1" d="M194.12,189.25v-6.91l5.79-3.9,8.43-.54,3.89,3.44-3.69,2.16-.22-.08c-1.78-.65-6.21-1.85-9.85.71l2.21,2.44-2.17,1.25Zm1-6.38v5l3-1,1-.56L197,184l.41-.34c2.85-2.27,6.85-2.73,11-1.26l2.1-1.23L208,178.92l-7.75.5Z"/><path class="cls-2" d="M210,178.92a14.09,14.09,0,0,0-12.77,0c-3.53,2-3.53,5.34,0,7.37a14.09,14.09,0,0,0,12.77,0C213.56,184.26,213.56,181,210,178.92Zm-10.21,5.89c-2.17-1.25-2.17-3.28,0-4.53a8.69,8.69,0,0,1,7.85,0c2.17,1.25,2.17,3.28,0,4.53a8.62,8.62,0,0,1-7.82,0Z"/><path class="cls-3" d="M210.13,180.08a14.15,14.15,0,0,0-12.77,0c-3.53,2-2.69,4.59.83,6.62s8.41,2.79,11.94.76S213.66,182.12,210.13,180.08ZM199.92,186c-2.17-1.25-2.62-4.22-.46-5.47s6-1.48,8.21-.23a3.31,3.31,0,0,1,.1,5.7A8.69,8.69,0,0,1,199.92,186Z"/><path class="cls-1" d="M203.65,188.25a13.69,13.69,0,0,1-6.64-1.58c-1.87-1.08-2.89-2.54-2.89-4.12s1-3,2.89-4.12a14.7,14.7,0,0,1,13.27,0c1.87,1.08,2.9,2.54,2.9,4.12s-1,3-2.9,4.12A13.66,13.66,0,0,1,203.65,188.25Zm0-10.42a12.61,12.61,0,0,0-6.14,1.46c-1.54.9-2.39,2.05-2.39,3.26s.85,2.36,2.39,3.25a13.54,13.54,0,0,0,12.27,0c1.55-.89,2.4-2.05,2.4-3.25s-.85-2.36-2.4-3.26h0A12.6,12.6,0,0,0,203.65,177.83Zm.1,8.37a8.44,8.44,0,0,1-4.18-1h0a2.88,2.88,0,0,1,0-5.4,9.11,9.11,0,0,1,8.35,0,2.88,2.88,0,0,1,0,5.4A8.42,8.42,0,0,1,203.75,186.2Zm-3.68-1.88a8.13,8.13,0,0,0,7.35,0,1.9,1.9,0,0,0,0-3.66,8.13,8.13,0,0,0-7.35,0,1.9,1.9,0,0,0,0,3.66Z"/><path class="cls-2" d="M168.21,182.81a14.09,14.09,0,0,0-12.75-.6c-3.62,1.87-3.78,5.17-.35,7.37a11.18,11.18,0,0,0,1.54.79c-1.14-1.28-.79-2.84,1.07-3.8a8.67,8.67,0,0,1,7.84.37c1.75,1.13,2,2.71.7,3.88a10.58,10.58,0,0,0,1.61-.64C171.49,188.31,171.64,185,168.21,182.81Z"/><path class="cls-3" d="M168.64,183.88a14.11,14.11,0,0,0-12.76-.6c-3.62,1.87-3.77,5.17-.35,7.37a10.6,10.6,0,0,0,10.95.56C170.1,189.35,172.06,186.08,168.64,183.88Zm-10.48,5.41c-2.11-1.35-2.43-4.48-.21-5.63a9.15,9.15,0,0,1,8,.51c2.1,1.35,1.59,4-.64,5.11a7.36,7.36,0,0,1-7.15,0Z"/><path class="cls-1" d="M171.18,186.61c.08-1.57-.88-3.08-2.69-4.25a14.73,14.73,0,0,0-13.26-.62c-1.92,1-3,2.4-3.09,4h0c-.07,1.57.89,3.08,2.7,4.25a11.25,11.25,0,0,0,1.62.83l2,.86-.26-.29a16.32,16.32,0,0,0,3.93.48,14.16,14.16,0,0,0,2.43-.21l-.3.29,2.11-.66a11.26,11.26,0,0,0,1.69-.68c1.91-1,3-2.4,3.08-4h0Zm-5.35-.09a8.65,8.65,0,0,0-4.6-1.22,8.21,8.21,0,0,0-3.74.83,4.12,4.12,0,0,0-.63.39,1.46,1.46,0,0,1-.14-.65,2.32,2.32,0,0,1,1.46-1.76,8.15,8.15,0,0,1,7.34.34,2.3,2.3,0,0,1,1.29,1.9,1.5,1.5,0,0,1-.26.73,5,5,0,0,0-.72-.56Zm0,1.28a3.84,3.84,0,0,1-.5.32,8.12,8.12,0,0,1-7.34-.35,4.81,4.81,0,0,1-.57-.44A3.33,3.33,0,0,1,158,187a8.12,8.12,0,0,1,7.34.34,4.41,4.41,0,0,1,.51.46Zm1.79,1.9-.16.07a2.16,2.16,0,0,0,.07-.8,2.63,2.63,0,0,0-.36-1.05,2.54,2.54,0,0,0,.62-1.52,3.23,3.23,0,0,0-1.75-2.79,9.1,9.1,0,0,0-8.34-.39,3.23,3.23,0,0,0-2,2.61,2.54,2.54,0,0,0,.37,1.42,2.51,2.51,0,0,0-.55,1.15,2.75,2.75,0,0,0,0,.81l-.15-.08c-1.49-1-2.28-2.15-2.24-3.35s1-2.31,2.55-3.12a13.54,13.54,0,0,1,12.25.57c1.5,1,2.29,2.15,2.24,3.35s-.95,2.31-2.53,3.12Zm-10.71.21a1.7,1.7,0,0,1-.41-1.33,1.48,1.48,0,0,1,.23-.53,4.34,4.34,0,0,0,.72.56h0a8.64,8.64,0,0,0,4.59,1.22,8.25,8.25,0,0,0,3.75-.83,4.12,4.12,0,0,0,.63-.39,1.69,1.69,0,0,1,.12.44,1.66,1.66,0,0,1-.54,1.29,14.31,14.31,0,0,1-9.07-.43Z"/><path class="cls-1" d="M165.2,188a1.11,1.11,0,0,1-1.37.77l-.09,0c-5.14-1.92-11.61-7.29-9.18-17.51A12.45,12.45,0,0,1,164,162c5.6-1.45,12,.21,15.46,4,2.9,3.17,5.46,2.39,10.13.61a27,27,0,0,1,6.94-1.94c3.88-.4,7.22,1.14,8.93,4.12,1.35,2.36,2.69,7.51-3.09,15.91a1.12,1.12,0,0,1-1.55.27h0l-1.61-1.18a.37.37,0,0,1-.09-.52h0c3.73-5.25,4.94-9.87,3.3-12.72-1-1.74-3.06-2.63-5.53-2.38a24.56,24.56,0,0,0-6.06,1.73c-4.36,1.67-9.31,3.55-14-1.52-2.63-2.87-7.68-4.15-12-3A9,9,0,0,0,158,172c-1.83,7.7,3,11.41,5.92,12.9A2.61,2.61,0,0,1,165.2,188Z"/><path class="cls-2" d="M181.3,202.3a3.69,3.69,0,0,0,0-.47l.31-6.23-3.18,2.14a13.55,13.55,0,0,0-4.88-1.75l-23.45-4c-5.42-.91-10.85.86-12.13,4l-1.3,3.2-2.57.6-.31,6.66v.3c0,.95,1.14,1.64,2.8,1.92l36,6.05c1.95.33,3.9-.3,4.36-1.42L181,203.24a4.52,4.52,0,0,0,.22-.8h0Z"/><path class="cls-3" d="M181.48,197.91a11.58,11.58,0,0,0-6.42-3L151.6,191c-5.41-.91-10.84.86-12.12,4l-3.82,6.75c-.87,2.4.64,2.92,1.1,3l36.13,6.13c2,.32,3.9-.31,4.36-1.42l4-9.77A3.39,3.39,0,0,0,181.48,197.91Z"/><path class="cls-1" d="M173.65,215.31a7,7,0,0,1-1.12-.09l-36-6.06c-2-.34-3.21-1.23-3.22-2.4v-.24l.33-7.13,2.69-.63,1.2-2.95c1.38-3.35,6.94-5.22,12.67-4.26l23.46,3.95a14.22,14.22,0,0,1,4.78,1.65l3.74-2.52-.36,7.22a4,4,0,0,1,0,.49v.47h-.07a3,3,0,0,1-.19.6l-4.08,10.06C177,214.6,175.42,215.31,173.65,215.31Zm-39-15.12-.32,6.6c0,.58,1,1.14,2.39,1.38l36,6.06c1.84.31,3.49-.34,3.81-1.12l4.09-10.06a3.9,3.9,0,0,0,.19-.69v-.12a1.41,1.41,0,0,0,0-.41l.26-5.26-2.62,1.77-.27-.18a12.93,12.93,0,0,0-4.7-1.68L150,192.54c-5.2-.88-10.39.76-11.59,3.65L137,199.62Z"/><path class="cls-1" d="M177,213.28l4.09-10.07a3.28,3.28,0,0,0,.22-.8h0v-.14a3.69,3.69,0,0,0,0-.47l.31-6.23-3.18,2.14a11.51,11.51,0,0,0-1.76-.87L175.17,208l-.31,6.62A2.84,2.84,0,0,0,177,213.28Z"/><path class="cls-2" d="M157.66,210.19,148,208.56l-1.46,3.55h-1.93l-.26,5.38,3.46,2.22-1.39,3.6-2.73.36-3.37-1.08-.26,5.37,3.61,2.32-.3.73-.21.31-5.57-1.8-.34,7.27a3.43,3.43,0,0,0,.51,2.23l1.28,2.07a2.59,2.59,0,0,0,1.81,1l2.4.41a3.89,3.89,0,0,0,2.33-.28l2.55-1.29a5.46,5.46,0,0,0,2.69-2.59l10.48-25.58.39-8.39Z"/><path class="cls-1" d="M144,243a5.52,5.52,0,0,1-.81-.06l-2.41-.41a3.13,3.13,0,0,1-2.15-1.23l-1.27-2.07a3.91,3.91,0,0,1-.59-2.56l.3-7.17,5.9,1.17.1-.25-3.5-2.24.28-5.85.17-.42,3.73,1.2,2.33-.3,1.14-3-3.36-2.15.27-5.85.13-.3h2l1.48-3.61,9.74,1.65,4.84-7.05-.51,10.31-10.48,25.58a5.81,5.81,0,0,1-2.92,2.84l-2.55,1.3A4.14,4.14,0,0,1,144,243Zm-5.92-12.86-.31,6.62a2.88,2.88,0,0,0,.44,1.94l1.27,2.08a2.16,2.16,0,0,0,1.47.76l2.4.41a3.43,3.43,0,0,0,2-.24l2.55-1.29a4.9,4.9,0,0,0,2.44-2.33l10.45-25.5.31-6.55-3.22,4.68-9.58-1.62-1.43,3.5h-1.8l-.22,4.61,3.56,2.28-1.64,4.26-3.14.41-2.86-.92-.2,4.44,3.71,2.38-.51,1.21-.42.62Z"/><path class="cls-2" d="M151.16,231l10.48-25.58-13.39-2.27-3.64,8.9h0l3.45,2.22-1.39,3.61-4.7.61-1.28,3.13-.37.91,3.6,2.31L142.25,229l-4.66.53a3.43,3.43,0,0,0,.51,2.23l1.28,2.07a2.62,2.62,0,0,0,1.81,1l2.4.4a3.92,3.92,0,0,0,2.34-.28l2.55-1.29A5.46,5.46,0,0,0,151.16,231Z"/><path class="cls-3" d="M152.09,233.93l8.59-21.18.29-4-.7-.77-11.09-1.88-3.65,8.9h0l3.46,2.22-1.39,3.6-4.7.61-1.28,3.13-.38.91,3.61,2.31-1.67,4.1-4.66.52a3.43,3.43,0,0,0,.51,2.23l1.27,2.08a2.71,2.71,0,0,0,1.81,1l2.41.41a3.89,3.89,0,0,0,2.33-.29l2.55-1.29A5.42,5.42,0,0,0,152.09,233.93Z"/><path class="cls-1" d="M162.29,205.09h0l-14.39-2.44-3.67,9-.13.3v.49l3.33,2.13-1.14,3-4.7.61-1.59,3.8-.17.42v.49l3.46,2.22-1.4,3.44-4.76.53,0,.39a3.91,3.91,0,0,0,.58,2.56l1.28,2.07a3,3,0,0,0,2.15,1.23l2.4.4a4.54,4.54,0,0,0,.82.07h.17l.08.05h.16a4,4,0,0,0,1.48-.37l2.55-1.29a5.87,5.87,0,0,0,2.92-2.85l10.72-26.16Zm-1.4.78-10.23,25a4.9,4.9,0,0,1-2.44,2.33l-2.55,1.29a2.2,2.2,0,0,1-.45.17l11.95-29.4Zm-19.65,28.42a2.16,2.16,0,0,1-1.47-.76l-1.27-2.08a2.8,2.8,0,0,1-.47-1.51l4.54-.51,1.94-4.76-3.61-2.31,1.39-3.38,4.71-.62,1.64-4.26-3.45-2.21,3.34-8.15,7.64,1.29L144.1,234.74h-.46Z"/><path class="cls-1" d="M161.51,206.32l-2.12,4.36-7.68,19-1,2.6-3.59,2.13-2.52.94-.34,7.23a3.66,3.66,0,0,0,1.26-.32l2.55-1.29a5.44,5.44,0,0,0,2.68-2.59l10.48-25.58Z"/><path class="cls-2" d="M172.92,208.1l-36-6.06c-1.94-.33-3.15-1.49-2.69-2.61l4.09-10.06c1.28-3.09,6.71-4.86,12.13-4l23.45,3.94c5.42.91,8.77,4.16,7.49,7.25l-4.09,10.07C176.82,207.79,174.87,208.43,172.92,208.1Z"/><path class="cls-3" d="M181.62,194.91a11.52,11.52,0,0,0-6.42-3l-23.45-4c-5.42-.91-10.85.86-12.13,4l-4,9.75a5.34,5.34,0,0,0,1.24.36l12.69,2.13a.53.53,0,0,1-.17-.61l2.31-5.72c.44-1.06,2.29-1.66,4.14-1.35L165,198c1.85.31,3,1.41,2.56,2.47l-2.31,5.73a1,1,0,0,1-.62.48l8.34,1.4c2,.33,3.9-.31,4.36-1.42l4.09-10.07A3.31,3.31,0,0,0,181.62,194.91Z"/><path class="cls-1" d="M181.59,193.22c-1.17-2.12-4-3.74-7.62-4.35l-23.46-3.94c-5.72-1-11.29.9-12.67,4.25l-4.09,10.06a1.81,1.81,0,0,0,.1,1.57,4.08,4.08,0,0,0,3,1.72l36,6.06a7,7,0,0,0,1.12.1c1.77,0,3.33-.71,3.79-1.82l4.08-10.07A4,4,0,0,0,181.59,193.22Zm-38.08,8.68,3.69-9.13c.49-1.19,2.44-2,4.6-2a8.9,8.9,0,0,1,1.46.12l14.5,2.44a5.13,5.13,0,0,1,3.61,2,1.43,1.43,0,0,1,.1,1.29l-3.7,9.14c-.17.41-1.12.74-2.14.57l-20.84-3.5a1.75,1.75,0,0,1-1.26-.66A.29.29,0,0,1,143.51,201.9Zm37.4-5.48-4.09,10.07c-.32.78-2,1.43-3.81,1.12l-4.84-.82a1.68,1.68,0,0,0,.53-.65l3.69-9.14a2.4,2.4,0,0,0-.15-2.15,6,6,0,0,0-4.31-2.48l-14.5-2.44c-3.23-.54-6.37.54-7.16,2.46l-3.69,9.14a1.24,1.24,0,0,0,0,1l-5.6-.94a3.18,3.18,0,0,1-2.26-1.23.79.79,0,0,1-.06-.7l4.09-10.06c1-2.36,4.63-3.88,8.77-3.88a16.56,16.56,0,0,1,2.81.23l23.46,4c3.25.54,5.9,2,6.91,3.84A3,3,0,0,1,180.91,196.42Z"/><path class="cls-2" d="M259.45,200.17l-10.83-.41-25.27-14.59c-2.94-1.69-7.37-1.88-9.91-.41l-13.14,7.59-8-1.66v7.84h0c0,1.1.86,2.24,2.42,3.15l33.67,19.44c2.94,1.69,7.37,1.88,9.91.41l19.39-11.19a2.91,2.91,0,0,0,1.71-2.55Z"/><path class="cls-1" d="M234,223a12,12,0,0,1-5.86-1.46L194.47,202.1a4.87,4.87,0,0,1-2.62-3.14h0v-8.19a.54.54,0,0,1,.54-.56h.13l7.71,1.6,13-7.49c2.67-1.55,7.34-1.36,10.41.41l25.17,14.53,11.18.42v8.1a3.39,3.39,0,0,1-2,3L238.59,222A9.15,9.15,0,0,1,234,223Zm-41.2-24.62v.12a3.73,3.73,0,0,0,2.17,2.73l33.67,19.45c2.79,1.61,7,1.79,9.41.41l19.39-11.2a2.42,2.42,0,0,0,1.46-2.1v-7.15l-10.47-.39-.11-.06L223.1,185.6c-2.79-1.61-7-1.79-9.41-.41l-13.3,7.68-7.55-1.57Z"/><path class="cls-2" d="M257.73,202.59l-19.39,11.2c-2.54,1.46-7,1.28-9.91-.41l-33.67-19.45c-2.93-1.69-3.25-4.25-.71-5.72L213.44,177c2.54-1.47,7-1.29,9.91.41L257,196.87C260,198.56,260.27,201.13,257.73,202.59Z"/><path class="cls-3" d="M257.06,199.57l-33.67-19.44c-2.93-1.69-7.37-1.88-9.91-.41l-19.39,11.19a4,4,0,0,0-1.27,1.12v2.82a5.55,5.55,0,0,0,2,1.79l33.68,19.44c2.93,1.69,7.37,1.88,9.91.41l19-11C259.9,204.07,260,201.27,257.06,199.57Zm-15.36,2.84-8.77,5.06a4,4,0,0,1-3.63-.15l-19.79-11.43c-1.07-.62-1.19-1.55-.26-2.09l8.77-5.06a4,4,0,0,1,3.62.15l19.8,11.43C242.51,200.94,242.63,201.87,241.7,202.41Z"/><path class="cls-1" d="M249.27,198.19l-7.7-4.44h0l-3.45-2h0l-17.48-10.09a6.29,6.29,0,0,0-5.74-.21l-12.68,7.32a2,2,0,0,0-1.16,1.74,2.64,2.64,0,0,0,1.54,2.15l17,9.8h0l3.45,2h0l8.2,4.74a6.54,6.54,0,0,0,3.21.81,5.12,5.12,0,0,0,2.54-.6l12.67-7.31a2.06,2.06,0,0,0,1.16-1.75A2.64,2.64,0,0,0,249.27,198.19ZM203.1,191.8a1.69,1.69,0,0,1-1-1.29,1.12,1.12,0,0,1,.66-.88l12.68-7.32a4.22,4.22,0,0,1,2-.45,5.62,5.62,0,0,1,2.72.67l17,9.8-16.55,9.55Zm18.84,10.87-.37-.21,16.55-9.55,1.45.84L223,203.3Zm27.2-1.45-12.67,7.32a5.4,5.4,0,0,1-4.75-.22l-7.7-4.44,16.55-9.56,8.2,4.74a1.67,1.67,0,0,1,1,1.28A1.11,1.11,0,0,1,249.14,201.22Z"/><path class="cls-1" d="M234,215.29a12,12,0,0,1-5.86-1.46l-33.67-19.44c-1.7-1-2.68-2.32-2.68-3.67a3.45,3.45,0,0,1,2-2.92l19.39-11.19c2.67-1.55,7.34-1.36,10.41.41l33.67,19.44c1.7,1,2.68,2.32,2.68,3.67a3.45,3.45,0,0,1-2,2.92l-19.39,11.19A9.12,9.12,0,0,1,234,215.29Zm-16.3-38.74a8.36,8.36,0,0,0-4,.92l-19.39,11.2a2.47,2.47,0,0,0-1.47,2.05c0,1,.8,2,2.18,2.81L228.68,213c2.79,1.61,7,1.79,9.41.41l19.39-11.2a2.47,2.47,0,0,0,1.47-2.05c0-1-.79-2-2.18-2.8L223.1,177.88a11,11,0,0,0-5.36-1.33Z"/><path class="cls-1" d="M228.43,221.14a10.35,10.35,0,0,0,2.38,1V214.4h0a10.35,10.35,0,0,1-2.38-1Z"/><path class="cls-1" d="M259.45,200.19a3,3,0,0,1-1.72,2.42l-19.39,11.2a8.6,8.6,0,0,1-4.07,1h0v7.72a8.6,8.6,0,0,0,4.1-1l19.39-11.19a2.91,2.91,0,0,0,1.71-2.55v-7.62Z"/></g><g id="car"><ellipse class="cls-1" cx="65.91" cy="204.4" rx="1.13" ry="0.65"/><path class="cls-1" d="M70.9,201.52a.49.49,0,0,1,0,.92,1.74,1.74,0,0,1-1.6,0,.48.48,0,0,1-.32-.6.47.47,0,0,1,.32-.32A1.74,1.74,0,0,1,70.9,201.52Z"/><ellipse class="cls-1" cx="74.29" cy="199.56" rx="1.13" ry="0.65"/><ellipse class="cls-1" cx="78.47" cy="197.14" rx="1.13" ry="0.65"/><path class="cls-1" d="M83.46,194.26c.45.26.45.67,0,.93a1.8,1.8,0,0,1-1.6,0,.48.48,0,0,1-.31-.62.48.48,0,0,1,.31-.31A1.74,1.74,0,0,1,83.46,194.26Z"/><path class="cls-1" d="M87.65,191.84c.45.26.45.67,0,.93a1.8,1.8,0,0,1-1.6,0,.48.48,0,0,1-.31-.62.48.48,0,0,1,.31-.31A1.8,1.8,0,0,1,87.65,191.84Z"/><path class="cls-1" d="M91.84,189.42c.45.26.45.67,0,.93a1.8,1.8,0,0,1-1.6,0,.48.48,0,0,1-.31-.62.48.48,0,0,1,.31-.31A1.8,1.8,0,0,1,91.84,189.42Z"/><path class="cls-1" d="M108.6,179.75a.49.49,0,0,1,0,.92,1.74,1.74,0,0,1-1.6,0,.48.48,0,0,1-.32-.6.47.47,0,0,1,.32-.32A1.74,1.74,0,0,1,108.6,179.75Z"/><path class="cls-1" d="M112.79,177.33a.48.48,0,0,1,.31.62.48.48,0,0,1-.31.31,1.8,1.8,0,0,1-1.6,0c-.45-.26-.45-.67,0-.93A1.74,1.74,0,0,1,112.79,177.33Z"/><path class="cls-1" d="M117,174.91a.48.48,0,0,1,.31.62.48.48,0,0,1-.31.31,1.8,1.8,0,0,1-1.6,0c-.45-.26-.45-.67,0-.93A1.8,1.8,0,0,1,117,174.91Z"/><path class="cls-1" d="M121.17,172.49a.48.48,0,0,1,.31.62.48.48,0,0,1-.31.31,1.82,1.82,0,0,1-1.61,0,.48.48,0,0,1-.31-.62.48.48,0,0,1,.31-.31A1.82,1.82,0,0,1,121.17,172.49Z"/><path class="cls-1" d="M125.36,170.07a.48.48,0,0,1,.31.62.48.48,0,0,1-.31.31,1.82,1.82,0,0,1-1.61,0,.48.48,0,0,1-.31-.62.48.48,0,0,1,.31-.31A1.82,1.82,0,0,1,125.36,170.07Z"/><path class="cls-1" d="M129.55,167.66a.49.49,0,0,1,0,.92,1.76,1.76,0,0,1-1.61,0,.49.49,0,0,1,0-.92A1.76,1.76,0,0,1,129.55,167.66Z"/><path class="cls-1" d="M133.73,165.24a.48.48,0,0,1,.32.6.47.47,0,0,1-.32.32,1.74,1.74,0,0,1-1.6,0,.49.49,0,0,1,0-.92A1.74,1.74,0,0,1,133.73,165.24Z"/><path class="cls-1" d="M60.91,201.52a1.74,1.74,0,0,1,1.6,0,.48.48,0,0,1,.32.6.47.47,0,0,1-.32.32,1.76,1.76,0,0,1-1.61,0,.49.49,0,0,1-.28-.63A.46.46,0,0,1,60.91,201.52Z"/><path class="cls-1" d="M66.71,199.1a.49.49,0,0,1,0,.92,1.74,1.74,0,0,1-1.6,0,.48.48,0,0,1-.32-.6.47.47,0,0,1,.32-.32A1.74,1.74,0,0,1,66.71,199.1Z"/><ellipse class="cls-1" cx="70.1" cy="197.14" rx="1.13" ry="0.65"/><ellipse class="cls-1" cx="74.29" cy="194.72" rx="1.13" ry="0.65"/><path class="cls-1" d="M79.28,191.84a.48.48,0,0,1,.31.62.48.48,0,0,1-.31.31,1.82,1.82,0,0,1-1.61,0,.48.48,0,0,1-.31-.62.48.48,0,0,1,.31-.31A1.82,1.82,0,0,1,79.28,191.84Z"/><path class="cls-1" d="M83.47,189.42a.49.49,0,0,1,0,.93,1.8,1.8,0,0,1-1.6,0,.48.48,0,0,1-.31-.62.48.48,0,0,1,.31-.31A1.8,1.8,0,0,1,83.47,189.42Z"/><path class="cls-1" d="M87.65,187c.45.26.45.67,0,.93a1.8,1.8,0,0,1-1.6,0,.48.48,0,0,1-.31-.62.48.48,0,0,1,.31-.31A1.8,1.8,0,0,1,87.65,187Z"/><path class="cls-1" d="M112.79,172.49a.48.48,0,0,1,.31.62.48.48,0,0,1-.31.31,1.8,1.8,0,0,1-1.6,0c-.45-.26-.45-.67,0-.93A1.8,1.8,0,0,1,112.79,172.49Z"/><path class="cls-1" d="M117,170.07a.48.48,0,0,1,.31.62.48.48,0,0,1-.31.31,1.8,1.8,0,0,1-1.6,0c-.45-.26-.45-.67,0-.93A1.8,1.8,0,0,1,117,170.07Z"/><path class="cls-1" d="M121.17,167.66a.49.49,0,0,1,0,.92,1.76,1.76,0,0,1-1.61,0,.49.49,0,0,1,0-.92A1.76,1.76,0,0,1,121.17,167.66Z"/><path class="cls-1" d="M125.36,165.24a.49.49,0,0,1,0,.92,1.76,1.76,0,0,1-1.61,0,.49.49,0,0,1,0-.92A1.76,1.76,0,0,1,125.36,165.24Z"/><path class="cls-1" d="M129.55,162.82a.49.49,0,0,1,0,.92,1.76,1.76,0,0,1-1.61,0,.49.49,0,0,1,0-.92A1.76,1.76,0,0,1,129.55,162.82Z"/><path class="cls-1" d="M56.72,199.1a1.76,1.76,0,0,1,1.61,0,.49.49,0,0,1,0,.92,1.8,1.8,0,0,1-1.6,0C56.28,199.77,56.28,199.36,56.72,199.1Z"/><path class="cls-1" d="M62.52,196.68a.49.49,0,0,1,0,.92,1.74,1.74,0,0,1-1.6,0,.48.48,0,0,1-.32-.6.47.47,0,0,1,.32-.32A1.74,1.74,0,0,1,62.52,196.68Z"/><path class="cls-1" d="M52.53,196.68a1.82,1.82,0,0,1,1.61,0,.48.48,0,0,1,.31.62.48.48,0,0,1-.31.31,1.8,1.8,0,0,1-1.6,0C52.09,197.35,52.09,196.94,52.53,196.68Z"/><path class="cls-1" d="M58.33,194.26a.48.48,0,0,1,.31.62.48.48,0,0,1-.31.31,1.8,1.8,0,0,1-1.6,0,.48.48,0,0,1-.31-.62.48.48,0,0,1,.31-.31A1.74,1.74,0,0,1,58.33,194.26Z"/><path class="cls-1" d="M48.34,194.26a1.82,1.82,0,0,1,1.61,0,.48.48,0,0,1,.31.62.48.48,0,0,1-.31.31,1.8,1.8,0,0,1-1.6,0C47.9,194.93,47.9,194.52,48.34,194.26Z"/><path class="cls-1" d="M54.14,191.84a.48.48,0,0,1,.31.62.48.48,0,0,1-.31.31,1.8,1.8,0,0,1-1.6,0,.48.48,0,0,1-.31-.62.48.48,0,0,1,.31-.31A1.8,1.8,0,0,1,54.14,191.84Z"/><path class="cls-1" d="M44.12,191.82a1.74,1.74,0,0,1,1.6,0,.48.48,0,0,1,.32.6.47.47,0,0,1-.32.32,1.74,1.74,0,0,1-1.6,0C43.68,192.49,43.68,192.08,44.12,191.82Z"/><path class="cls-1" d="M49.92,189.4a.49.49,0,0,1,0,.92,1.76,1.76,0,0,1-1.61,0,.49.49,0,0,1,0-.92A1.76,1.76,0,0,1,49.92,189.4Z"/><path class="cls-1" d="M39.93,189.4a1.74,1.74,0,0,1,1.6,0,.48.48,0,0,1,.32.6.47.47,0,0,1-.32.32,1.82,1.82,0,0,1-1.61,0,.49.49,0,0,1-.28-.63A.46.46,0,0,1,39.93,189.4Z"/><path class="cls-1" d="M45.73,187a.49.49,0,0,1,0,.92,1.76,1.76,0,0,1-1.61,0,.49.49,0,0,1,0-.92A1.76,1.76,0,0,1,45.73,187Z"/><path class="cls-1" d="M35.74,187a1.8,1.8,0,0,1,1.6,0c.45.26.45.67,0,.93a1.82,1.82,0,0,1-1.61,0,.49.49,0,0,1,0-.93Z"/><path class="cls-1" d="M41.54,184.56a.48.48,0,0,1,.31.62.48.48,0,0,1-.31.31,1.8,1.8,0,0,1-1.6,0c-.45-.26-.45-.67,0-.93A1.74,1.74,0,0,1,41.54,184.56Z"/><path class="cls-1" d="M31.55,184.56a1.8,1.8,0,0,1,1.6,0c.45.26.45.67,0,.93a1.82,1.82,0,0,1-1.61,0,.49.49,0,0,1,0-.93Z"/><ellipse class="cls-1" cx="36.55" cy="182.6" rx="1.13" ry="0.65"/><path class="cls-1" d="M27.36,182.14a1.82,1.82,0,0,1,1.61,0,.48.48,0,0,1,.31.62.48.48,0,0,1-.31.31,1.8,1.8,0,0,1-1.6,0,.49.49,0,0,1-.32-.62A.5.5,0,0,1,27.36,182.14Z"/><path class="cls-1" d="M33.16,179.72a.48.48,0,0,1,.31.62.48.48,0,0,1-.31.31,1.8,1.8,0,0,1-1.6,0c-.45-.26-.45-.67,0-.93A1.8,1.8,0,0,1,33.16,179.72Z"/><path class="cls-1" d="M23.17,179.73a1.82,1.82,0,0,1,1.61,0,.48.48,0,0,1,.31.62.48.48,0,0,1-.31.31,1.74,1.74,0,0,1-1.6,0,.47.47,0,0,1-.35-.58A.48.48,0,0,1,23.17,179.73Z"/><path class="cls-1" d="M29,177.3a.48.48,0,0,1,.31.62.48.48,0,0,1-.31.31,1.74,1.74,0,0,1-1.6,0,.48.48,0,0,1-.31-.62.48.48,0,0,1,.31-.31A1.8,1.8,0,0,1,29,177.3Z"/><path class="cls-1" d="M19,177.31a1.76,1.76,0,0,1,1.61,0,.49.49,0,0,1,0,.92,1.74,1.74,0,0,1-1.6,0,.48.48,0,0,1-.33-.59A.5.5,0,0,1,19,177.31Z"/><path class="cls-1" d="M24.78,174.89a.49.49,0,0,1,0,.92,1.74,1.74,0,0,1-1.6,0,.49.49,0,0,1,0-.92A1.74,1.74,0,0,1,24.78,174.89Z"/><path class="cls-1" d="M14.8,174.89a1.74,1.74,0,0,1,1.6,0,.49.49,0,0,1,0,.92,1.74,1.74,0,0,1-1.6,0C14.36,175.56,14.35,175.15,14.8,174.89Z"/><path class="cls-1" d="M20.59,172.47a.49.49,0,0,1,0,.92,1.74,1.74,0,0,1-1.6,0,.49.49,0,0,1,0-.92A1.74,1.74,0,0,1,20.59,172.47Z"/><path class="cls-1" d="M10.57,172.45a1.8,1.8,0,0,1,1.6,0c.45.26.45.67,0,.93a1.82,1.82,0,0,1-1.61,0,.49.49,0,0,1,0-.93Z"/><path class="cls-1" d="M16.37,170a.48.48,0,0,1,.31.62.48.48,0,0,1-.31.31,1.82,1.82,0,0,1-1.61,0,.48.48,0,0,1-.31-.62.48.48,0,0,1,.31-.31A1.82,1.82,0,0,1,16.37,170Z"/><path class="cls-1" d="M6.38,170A1.78,1.78,0,0,1,8,170c.45.26.45.67,0,.93a1.76,1.76,0,0,1-1.61,0,.49.49,0,0,1-.32-.62A.5.5,0,0,1,6.38,170Z"/><path class="cls-1" d="M12.18,167.61c.44.25.44.66,0,.92a1.74,1.74,0,0,1-1.6,0c-.45-.26-.45-.67,0-.92A1.74,1.74,0,0,1,12.18,167.61Z"/><path class="cls-1" d="M2.19,167.61a1.74,1.74,0,0,1,1.6,0,.48.48,0,0,1,.32.6.47.47,0,0,1-.32.32,1.74,1.74,0,0,1-1.6,0,.48.48,0,0,1-.32-.6A.47.47,0,0,1,2.19,167.61Z"/><path class="cls-1" d="M8,165.19a.49.49,0,0,1,0,.92,1.74,1.74,0,0,1-1.6,0,.48.48,0,0,1-.32-.6.47.47,0,0,1,.32-.32A1.74,1.74,0,0,1,8,165.19Z"/><path class="cls-1" d="M3.8,162.77a.49.49,0,0,1,0,.92,1.74,1.74,0,0,1-1.6,0,.48.48,0,0,1-.32-.6.47.47,0,0,1,.32-.32A1.74,1.74,0,0,1,3.8,162.77Z"/><path class="cls-1" d="M83.63,203.55a.49.49,0,0,1,0,.92,1.74,1.74,0,0,1-1.6,0,.48.48,0,0,1-.32-.6.47.47,0,0,1,.32-.32A1.74,1.74,0,0,1,83.63,203.55Z"/><path class="cls-1" d="M87.82,201.13a.49.49,0,0,1,0,.92,1.74,1.74,0,0,1-1.6,0,.48.48,0,0,1-.32-.6.47.47,0,0,1,.32-.32A1.74,1.74,0,0,1,87.82,201.13Z"/><path class="cls-1" d="M92,198.71a.48.48,0,0,1,.31.62.48.48,0,0,1-.31.31,1.8,1.8,0,0,1-1.6,0c-.45-.26-.45-.67,0-.93A1.74,1.74,0,0,1,92,198.71Z"/><ellipse class="cls-1" cx="95.4" cy="196.75" rx="1.13" ry="0.65"/><path class="cls-1" d="M100.39,193.87a.48.48,0,0,1,.31.62.48.48,0,0,1-.31.31,1.82,1.82,0,0,1-1.61,0,.48.48,0,0,1-.31-.62.48.48,0,0,1,.31-.31A1.82,1.82,0,0,1,100.39,193.87Z"/><path class="cls-1" d="M104.57,191.45c.45.26.45.67,0,.93a1.8,1.8,0,0,1-1.6,0,.48.48,0,0,1-.31-.62.48.48,0,0,1,.31-.31A1.8,1.8,0,0,1,104.57,191.45Z"/><path class="cls-1" d="M108.76,189a.48.48,0,0,1,.32.6.47.47,0,0,1-.32.32,1.74,1.74,0,0,1-1.6,0,.49.49,0,0,1,0-.92A1.74,1.74,0,0,1,108.76,189Z"/><path class="cls-1" d="M113,186.62a.48.48,0,0,1,.32.6.47.47,0,0,1-.32.32,1.74,1.74,0,0,1-1.6,0,.49.49,0,0,1,0-.92A1.74,1.74,0,0,1,113,186.62Z"/><path class="cls-1" d="M117.14,184.2a.49.49,0,0,1,0,.92,1.74,1.74,0,0,1-1.6,0,.49.49,0,0,1,0-.92A1.74,1.74,0,0,1,117.14,184.2Z"/><path class="cls-1" d="M121.33,181.78a.48.48,0,0,1,.31.62.48.48,0,0,1-.31.31,1.8,1.8,0,0,1-1.6,0,.48.48,0,0,1-.31-.62.48.48,0,0,1,.31-.31A1.74,1.74,0,0,1,121.33,181.78Z"/><path class="cls-1" d="M125.52,179.36a.48.48,0,0,1,.31.62.48.48,0,0,1-.31.31,1.8,1.8,0,0,1-1.6,0,.48.48,0,0,1-.31-.62.48.48,0,0,1,.31-.31A1.8,1.8,0,0,1,125.52,179.36Z"/><path class="cls-1" d="M129.71,176.94a.48.48,0,0,1,.31.62.48.48,0,0,1-.31.31,1.8,1.8,0,0,1-1.6,0c-.45-.26-.45-.67,0-.93A1.8,1.8,0,0,1,129.71,176.94Z"/><ellipse class="cls-1" cx="133.1" cy="174.99" rx="1.13" ry="0.65"/><path class="cls-1" d="M138.09,172.11a.49.49,0,0,1,0,.92,1.74,1.74,0,0,1-1.6,0,.48.48,0,0,1-.32-.6.47.47,0,0,1,.32-.32A1.74,1.74,0,0,1,138.09,172.11Z"/><path class="cls-1" d="M142.28,169.69a.49.49,0,0,1,0,.92,1.76,1.76,0,0,1-1.61,0,.49.49,0,0,1,0-.92A1.76,1.76,0,0,1,142.28,169.69Z"/><path class="cls-1" d="M75.25,203.55a.49.49,0,0,1,0,.92,1.74,1.74,0,0,1-1.6,0,.49.49,0,0,1,0-.92A1.74,1.74,0,0,1,75.25,203.55Z"/><path class="cls-1" d="M79.44,201.13a.49.49,0,0,1,0,.92,1.74,1.74,0,0,1-1.6,0,.49.49,0,0,1,0-.92A1.74,1.74,0,0,1,79.44,201.13Z"/><path class="cls-1" d="M83.63,198.71a.48.48,0,0,1,.31.62.48.48,0,0,1-.31.31,1.8,1.8,0,0,1-1.6,0c-.45-.26-.45-.67,0-.93A1.74,1.74,0,0,1,83.63,198.71Z"/><path class="cls-1" d="M87.82,196.29a.48.48,0,0,1,.31.62.48.48,0,0,1-.31.31,1.8,1.8,0,0,1-1.6,0c-.45-.26-.45-.67,0-.93A1.8,1.8,0,0,1,87.82,196.29Z"/><path class="cls-1" d="M92,193.87a.48.48,0,0,1,.31.62.48.48,0,0,1-.31.31,1.8,1.8,0,0,1-1.6,0c-.45-.26-.45-.67,0-.93A1.8,1.8,0,0,1,92,193.87Z"/><path class="cls-1" d="M96.2,191.45a.48.48,0,0,1,.31.62.48.48,0,0,1-.31.31,1.82,1.82,0,0,1-1.61,0,.48.48,0,0,1-.31-.62.48.48,0,0,1,.31-.31A1.82,1.82,0,0,1,96.2,191.45Z"/><path class="cls-1" d="M100.39,189a.49.49,0,0,1,0,.92,1.76,1.76,0,0,1-1.61,0,.49.49,0,0,1,0-.92A1.76,1.76,0,0,1,100.39,189Z"/><ellipse class="cls-1" cx="103.77" cy="187.08" rx="1.13" ry="0.65"/><path class="cls-1" d="M108.76,184.2a.48.48,0,0,1,.32.6.47.47,0,0,1-.32.32,1.74,1.74,0,0,1-1.6,0,.49.49,0,0,1,0-.92A1.74,1.74,0,0,1,108.76,184.2Z"/><path class="cls-1" d="M113,181.78c.45.26.45.67,0,.93a1.8,1.8,0,0,1-1.6,0,.48.48,0,0,1-.31-.62.48.48,0,0,1,.31-.31A1.74,1.74,0,0,1,113,181.78Z"/><path class="cls-1" d="M117.14,179.36a.48.48,0,0,1,.31.62.48.48,0,0,1-.31.31,1.8,1.8,0,0,1-1.6,0,.48.48,0,0,1-.31-.62.48.48,0,0,1,.31-.31A1.8,1.8,0,0,1,117.14,179.36Z"/><path class="cls-1" d="M121.33,176.94a.48.48,0,0,1,.31.62.48.48,0,0,1-.31.31,1.8,1.8,0,0,1-1.6,0,.48.48,0,0,1-.31-.62.48.48,0,0,1,.31-.31A1.8,1.8,0,0,1,121.33,176.94Z"/><path class="cls-1" d="M125.52,174.52a.48.48,0,0,1,.31.62.48.48,0,0,1-.31.31,1.8,1.8,0,0,1-1.6,0,.48.48,0,0,1-.31-.62.48.48,0,0,1,.31-.31A1.8,1.8,0,0,1,125.52,174.52Z"/><path class="cls-1" d="M129.71,172.11a.49.49,0,0,1,0,.92,1.74,1.74,0,0,1-1.6,0,.48.48,0,0,1-.32-.6.47.47,0,0,1,.32-.32A1.74,1.74,0,0,1,129.71,172.11Z"/><path class="cls-1" d="M133.9,169.69a.49.49,0,0,1,0,.92,1.74,1.74,0,0,1-1.6,0,.48.48,0,0,1-.32-.6.47.47,0,0,1,.32-.32A1.74,1.74,0,0,1,133.9,169.69Z"/><ellipse class="cls-1" cx="137.29" cy="167.73" rx="1.13" ry="0.65"/><path class="cls-1" d="M137.94,162.85c.44.26.44.67,0,.92a1.76,1.76,0,0,1-1.61,0c-.44-.25-.44-.66,0-.92A1.76,1.76,0,0,1,137.94,162.85Z"/><path class="cls-1" d="M142.13,160.43a.48.48,0,0,1,.31.62.48.48,0,0,1-.31.31,1.82,1.82,0,0,1-1.61,0,.48.48,0,0,1-.31-.62.48.48,0,0,1,.31-.31A1.82,1.82,0,0,1,142.13,160.43Z"/><path class="cls-1" d="M146.31,158c.45.26.45.67,0,.93a1.8,1.8,0,0,1-1.6,0,.48.48,0,0,1-.31-.62.48.48,0,0,1,.31-.31A1.8,1.8,0,0,1,146.31,158Z"/><path class="cls-1" d="M150.5,155.59c.45.26.45.67,0,.93a1.8,1.8,0,0,1-1.6,0,.48.48,0,0,1-.31-.62.48.48,0,0,1,.31-.31A1.8,1.8,0,0,1,150.5,155.59Z"/><ellipse class="cls-1" cx="153.89" cy="153.64" rx="1.13" ry="0.65"/><path class="cls-1" d="M158.88,150.76a.49.49,0,0,1,0,.92,1.74,1.74,0,0,1-1.6,0,.49.49,0,0,1,0-.92A1.74,1.74,0,0,1,158.88,150.76Z"/><path class="cls-1" d="M163.07,148.34a.49.49,0,0,1,0,.92,1.74,1.74,0,0,1-1.6,0,.49.49,0,0,1,0-.92A1.74,1.74,0,0,1,163.07,148.34Z"/><path class="cls-1" d="M167.26,145.92c.44.26.44.67,0,.92a1.74,1.74,0,0,1-1.6,0c-.44-.25-.44-.66,0-.92A1.74,1.74,0,0,1,167.26,145.92Z"/><path class="cls-1" d="M171.45,143.5a.48.48,0,0,1,.31.62.48.48,0,0,1-.31.31,1.8,1.8,0,0,1-1.6,0c-.45-.26-.45-.67,0-.93A1.8,1.8,0,0,1,171.45,143.5Z"/><path class="cls-1" d="M175.64,141.08a.48.48,0,0,1,.31.62.48.48,0,0,1-.31.31,1.8,1.8,0,0,1-1.6,0c-.45-.26-.45-.67,0-.93A1.8,1.8,0,0,1,175.64,141.08Z"/><ellipse class="cls-1" cx="179.03" cy="139.13" rx="1.13" ry="0.65"/><path class="cls-1" d="M184,136.25c.44.25.44.66,0,.92a1.76,1.76,0,0,1-1.61,0c-.44-.26-.44-.67,0-.92A1.76,1.76,0,0,1,184,136.25Z"/><path class="cls-1" d="M188.21,133.83a.49.49,0,0,1,0,.92,1.76,1.76,0,0,1-1.61,0,.49.49,0,0,1,0-.92A1.76,1.76,0,0,1,188.21,133.83Z"/><path class="cls-1" d="M192.39,131.41a.48.48,0,0,1,.32.6.47.47,0,0,1-.32.32,1.74,1.74,0,0,1-1.6,0,.49.49,0,0,1,0-.92A1.74,1.74,0,0,1,192.39,131.41Z"/><path class="cls-1" d="M196.58,129a.48.48,0,0,1,.32.6.47.47,0,0,1-.32.32,1.74,1.74,0,0,1-1.6,0,.49.49,0,0,1,0-.92A1.74,1.74,0,0,1,196.58,129Z"/><path class="cls-1" d="M200.77,126.57c.45.26.45.67,0,.93a1.8,1.8,0,0,1-1.6,0,.48.48,0,0,1-.31-.62.48.48,0,0,1,.31-.31A1.8,1.8,0,0,1,200.77,126.57Z"/><path class="cls-1" d="M205,124.15a.48.48,0,0,1,.31.62.48.48,0,0,1-.31.31,1.8,1.8,0,0,1-1.6,0,.48.48,0,0,1-.31-.62.48.48,0,0,1,.31-.31A1.8,1.8,0,0,1,205,124.15Z"/><path class="cls-1" d="M132.14,160.43a1.8,1.8,0,0,1,1.6,0c.45.26.45.67,0,.93a1.8,1.8,0,0,1-1.6,0,.48.48,0,0,1-.31-.62A.48.48,0,0,1,132.14,160.43Z"/><path class="cls-1" d="M137.94,158a.48.48,0,0,1,.31.62.48.48,0,0,1-.31.31,1.82,1.82,0,0,1-1.61,0,.48.48,0,0,1-.31-.62.48.48,0,0,1,.31-.31A1.82,1.82,0,0,1,137.94,158Z"/><path class="cls-1" d="M142.13,155.59a.48.48,0,0,1,.31.62.48.48,0,0,1-.31.31,1.82,1.82,0,0,1-1.61,0,.48.48,0,0,1-.31-.62.48.48,0,0,1,.31-.31A1.82,1.82,0,0,1,142.13,155.59Z"/><path class="cls-1" d="M146.31,153.18a.48.48,0,0,1,.32.6.47.47,0,0,1-.32.32,1.74,1.74,0,0,1-1.6,0,.49.49,0,0,1,0-.92A1.74,1.74,0,0,1,146.31,153.18Z"/><path class="cls-1" d="M150.5,150.76a.48.48,0,0,1,.32.6.47.47,0,0,1-.32.32,1.74,1.74,0,0,1-1.6,0,.49.49,0,0,1,0-.92A1.74,1.74,0,0,1,150.5,150.76Z"/><ellipse class="cls-1" cx="153.89" cy="148.8" rx="1.13" ry="0.65"/><ellipse class="cls-1" cx="158.08" cy="146.38" rx="1.13" ry="0.65"/><path class="cls-1" d="M163.07,143.5a.48.48,0,0,1,.31.62.48.48,0,0,1-.31.31,1.8,1.8,0,0,1-1.6,0,.48.48,0,0,1-.31-.62.48.48,0,0,1,.31-.31A1.8,1.8,0,0,1,163.07,143.5Z"/><ellipse class="cls-1" cx="166.46" cy="141.54" rx="1.13" ry="0.65"/><ellipse class="cls-1" cx="170.65" cy="139.13" rx="1.13" ry="0.65"/><path class="cls-1" d="M175.64,136.25c.44.25.44.66,0,.92a1.74,1.74,0,0,1-1.6,0c-.45-.26-.45-.67,0-.92A1.74,1.74,0,0,1,175.64,136.25Z"/><path class="cls-1" d="M179.83,133.83a.49.49,0,0,1,0,.92,1.74,1.74,0,0,1-1.6,0,.48.48,0,0,1-.32-.6.47.47,0,0,1,.32-.32A1.74,1.74,0,0,1,179.83,133.83Z"/><path class="cls-1" d="M184,131.41a.49.49,0,0,1,0,.92,1.76,1.76,0,0,1-1.61,0,.49.49,0,0,1,0-.92A1.76,1.76,0,0,1,184,131.41Z"/><path class="cls-1" d="M188.21,129a.49.49,0,0,1,0,.92,1.76,1.76,0,0,1-1.61,0,.49.49,0,0,1,0-.92A1.76,1.76,0,0,1,188.21,129Z"/><path class="cls-1" d="M192.39,126.57c.45.26.45.67,0,.93a1.8,1.8,0,0,1-1.6,0,.48.48,0,0,1-.31-.62.48.48,0,0,1,.31-.31A1.8,1.8,0,0,1,192.39,126.57Z"/><path class="cls-1" d="M196.58,124.15c.45.26.45.67,0,.93a1.8,1.8,0,0,1-1.6,0,.48.48,0,0,1-.31-.62.48.48,0,0,1,.31-.31A1.8,1.8,0,0,1,196.58,124.15Z"/><path class="cls-1" d="M200.77,121.73c.45.26.45.67,0,.93a1.8,1.8,0,0,1-1.6,0,.48.48,0,0,1-.31-.62.48.48,0,0,1,.31-.31A1.8,1.8,0,0,1,200.77,121.73Z"/><path class="cls-1" d="M144.87,167.3a1.8,1.8,0,0,1,1.6,0c.45.26.45.67,0,.93a1.82,1.82,0,0,1-1.61,0,.49.49,0,0,1,0-.93Z"/><path class="cls-1" d="M150.67,164.88a.48.48,0,0,1,.31.62.48.48,0,0,1-.31.31,1.8,1.8,0,0,1-1.6,0c-.45-.26-.45-.67,0-.93A1.8,1.8,0,0,1,150.67,164.88Z"/><path class="cls-1" d="M154.86,162.46a.48.48,0,0,1,.31.62.48.48,0,0,1-.31.31,1.82,1.82,0,0,1-1.61,0,.48.48,0,0,1-.31-.62.48.48,0,0,1,.31-.31A1.82,1.82,0,0,1,154.86,162.46Z"/><path class="cls-1" d="M159.05,160a.48.48,0,0,1,.31.62.48.48,0,0,1-.31.31,1.82,1.82,0,0,1-1.61,0,.48.48,0,0,1-.31-.62.48.48,0,0,1,.31-.31A1.82,1.82,0,0,1,159.05,160Z"/><ellipse class="cls-1" cx="162.43" cy="158.09" rx="1.13" ry="0.65"/><path class="cls-1" d="M167.42,155.21a.48.48,0,0,1,.32.6.47.47,0,0,1-.32.32,1.74,1.74,0,0,1-1.6,0,.49.49,0,0,1,0-.92A1.74,1.74,0,0,1,167.42,155.21Z"/><path class="cls-1" d="M171.61,152.79a.48.48,0,0,1,.32.6.47.47,0,0,1-.32.32,1.74,1.74,0,0,1-1.6,0,.49.49,0,0,1,0-.92A1.74,1.74,0,0,1,171.61,152.79Z"/><path class="cls-1" d="M175.8,150.37c.44.26.44.67,0,.92a1.74,1.74,0,0,1-1.6,0c-.44-.25-.44-.66,0-.92A1.74,1.74,0,0,1,175.8,150.37Z"/><path class="cls-1" d="M180,148a.48.48,0,0,1,.31.62.48.48,0,0,1-.31.31,1.8,1.8,0,0,1-1.6,0,.48.48,0,0,1-.31-.62.48.48,0,0,1,.31-.31A1.8,1.8,0,0,1,180,148Z"/><path class="cls-1" d="M184.18,145.53a.48.48,0,0,1,.31.62.48.48,0,0,1-.31.31,1.8,1.8,0,0,1-1.6,0,.48.48,0,0,1-.31-.62.48.48,0,0,1,.31-.31A1.8,1.8,0,0,1,184.18,145.53Z"/><path class="cls-1" d="M188.37,143.11a.48.48,0,0,1,.31.62.48.48,0,0,1-.31.31,1.8,1.8,0,0,1-1.6,0,.48.48,0,0,1-.31-.62.48.48,0,0,1,.31-.31A1.8,1.8,0,0,1,188.37,143.11Z"/><path class="cls-1" d="M192.56,140.7c.44.25.44.66,0,.92a1.74,1.74,0,0,1-1.6,0c-.45-.26-.45-.67,0-.92A1.74,1.74,0,0,1,192.56,140.7Z"/><ellipse class="cls-1" cx="195.95" cy="138.74" rx="1.13" ry="0.65"/><path class="cls-1" d="M200.94,135.86a.49.49,0,0,1,0,.92,1.76,1.76,0,0,1-1.61,0,.49.49,0,0,1,0-.92A1.76,1.76,0,0,1,200.94,135.86Z"/><path class="cls-1" d="M205.13,133.44c.44.26.44.67,0,.92a1.76,1.76,0,0,1-1.61,0c-.44-.25-.44-.66,0-.92A1.76,1.76,0,0,1,205.13,133.44Z"/><path class="cls-1" d="M209.32,131a.48.48,0,0,1,.31.62.48.48,0,0,1-.31.31,1.82,1.82,0,0,1-1.61,0,.48.48,0,0,1-.31-.62.48.48,0,0,1,.31-.31A1.82,1.82,0,0,1,209.32,131Z"/><path class="cls-1" d="M213.5,128.6c.45.26.45.67,0,.93a1.8,1.8,0,0,1-1.6,0,.48.48,0,0,1-.31-.62.48.48,0,0,1,.31-.31A1.8,1.8,0,0,1,213.5,128.6Z"/><path class="cls-1" d="M140.68,164.88a1.8,1.8,0,0,1,1.6,0c.45.26.45.67,0,.93a1.82,1.82,0,0,1-1.61,0,.49.49,0,0,1,0-.93Z"/><path class="cls-1" d="M146.48,162.46a.48.48,0,0,1,.31.62.48.48,0,0,1-.31.31,1.8,1.8,0,0,1-1.6,0c-.45-.26-.45-.67,0-.93A1.8,1.8,0,0,1,146.48,162.46Z"/><path class="cls-1" d="M150.67,160a.48.48,0,0,1,.31.62.48.48,0,0,1-.31.31,1.8,1.8,0,0,1-1.6,0c-.45-.26-.45-.67,0-.93A1.8,1.8,0,0,1,150.67,160Z"/><path class="cls-1" d="M154.86,157.63a.49.49,0,0,1,0,.92,1.76,1.76,0,0,1-1.61,0,.49.49,0,0,1,0-.92A1.76,1.76,0,0,1,154.86,157.63Z"/><path class="cls-1" d="M159.05,155.21a.49.49,0,0,1,0,.92,1.76,1.76,0,0,1-1.61,0,.49.49,0,0,1,0-.92A1.76,1.76,0,0,1,159.05,155.21Z"/><path class="cls-1" d="M163.24,152.79a.49.49,0,0,1,0,.92,1.76,1.76,0,0,1-1.61,0,.49.49,0,0,1,0-.92A1.76,1.76,0,0,1,163.24,152.79Z"/><path class="cls-1" d="M167.42,150.37c.45.26.45.67,0,.92a1.74,1.74,0,0,1-1.6,0c-.44-.25-.44-.66,0-.92A1.74,1.74,0,0,1,167.42,150.37Z"/><path class="cls-1" d="M171.61,148c.45.26.45.67,0,.93a1.8,1.8,0,0,1-1.6,0,.48.48,0,0,1-.31-.62A.48.48,0,0,1,170,148,1.8,1.8,0,0,1,171.61,148Z"/><path class="cls-1" d="M175.8,145.53a.48.48,0,0,1,.31.62.48.48,0,0,1-.31.31,1.8,1.8,0,0,1-1.6,0,.48.48,0,0,1-.31-.62.48.48,0,0,1,.31-.31A1.8,1.8,0,0,1,175.8,145.53Z"/><path class="cls-1" d="M180,143.11a.48.48,0,0,1,.31.62.48.48,0,0,1-.31.31,1.8,1.8,0,0,1-1.6,0,.48.48,0,0,1-.31-.62.48.48,0,0,1,.31-.31A1.8,1.8,0,0,1,180,143.11Z"/><path class="cls-1" d="M184.18,140.7c.44.25.44.66,0,.92a1.74,1.74,0,0,1-1.6,0c-.44-.26-.44-.67,0-.92A1.74,1.74,0,0,1,184.18,140.7Z"/><path class="cls-1" d="M188.37,138.28a.49.49,0,0,1,0,.92,1.74,1.74,0,0,1-1.6,0,.49.49,0,0,1,0-.92A1.74,1.74,0,0,1,188.37,138.28Z"/><path class="cls-1" d="M192.56,135.86a.49.49,0,0,1,0,.92,1.74,1.74,0,0,1-1.6,0,.48.48,0,0,1-.32-.6.47.47,0,0,1,.32-.32A1.74,1.74,0,0,1,192.56,135.86Z"/><path class="cls-1" d="M196.75,133.44c.44.26.44.67,0,.92a1.74,1.74,0,0,1-1.6,0c-.45-.25-.45-.66,0-.92A1.74,1.74,0,0,1,196.75,133.44Z"/><path class="cls-1" d="M200.94,131a.48.48,0,0,1,.31.62.48.48,0,0,1-.31.31,1.82,1.82,0,0,1-1.61,0,.48.48,0,0,1-.31-.62.48.48,0,0,1,.31-.31A1.82,1.82,0,0,1,200.94,131Z"/><path class="cls-1" d="M205.13,128.6a.48.48,0,0,1,.31.62.48.48,0,0,1-.31.31,1.82,1.82,0,0,1-1.61,0,.48.48,0,0,1-.31-.62.48.48,0,0,1,.31-.31A1.82,1.82,0,0,1,205.13,128.6Z"/><path class="cls-1" d="M209.32,126.18a.48.48,0,0,1,.31.62.48.48,0,0,1-.31.31,1.82,1.82,0,0,1-1.61,0,.48.48,0,0,1-.31-.62.48.48,0,0,1,.31-.31A1.82,1.82,0,0,1,209.32,126.18Z"/><path class="cls-1" d="M209.19,121.75a.48.48,0,0,1,.31.62.48.48,0,0,1-.31.31,1.82,1.82,0,0,1-1.61,0,.48.48,0,0,1-.31-.62.48.48,0,0,1,.31-.31A1.82,1.82,0,0,1,209.19,121.75Z"/><path class="cls-1" d="M225.94,112.08c.44.26.44.67,0,.92a1.74,1.74,0,0,1-1.6,0c-.44-.25-.44-.66,0-.92A1.74,1.74,0,0,1,225.94,112.08Z"/><path class="cls-1" d="M230.13,109.66a.48.48,0,0,1,.31.62.48.48,0,0,1-.31.31,1.8,1.8,0,0,1-1.6,0,.48.48,0,0,1-.31-.62.48.48,0,0,1,.31-.31A1.8,1.8,0,0,1,230.13,109.66Z"/><path class="cls-1" d="M234.32,107.24a.48.48,0,0,1,.31.62.48.48,0,0,1-.31.31,1.8,1.8,0,0,1-1.6,0,.48.48,0,0,1-.31-.62.48.48,0,0,1,.31-.31A1.8,1.8,0,0,1,234.32,107.24Z"/><path class="cls-1" d="M238.51,104.82a.48.48,0,0,1,.31.62.48.48,0,0,1-.31.31,1.8,1.8,0,0,1-1.6,0c-.45-.26-.45-.67,0-.93A1.8,1.8,0,0,1,238.51,104.82Z"/><path class="cls-1" d="M242.7,102.41a.49.49,0,0,1,0,.92,1.74,1.74,0,0,1-1.6,0,.48.48,0,0,1-.32-.6.47.47,0,0,1,.32-.32A1.74,1.74,0,0,1,242.7,102.41Z"/><path class="cls-1" d="M246.89,100a.49.49,0,0,1,0,.92,1.74,1.74,0,0,1-1.6,0,.48.48,0,0,1-.32-.6.47.47,0,0,1,.32-.32A1.74,1.74,0,0,1,246.89,100Z"/><path class="cls-1" d="M251.08,97.57a.49.49,0,0,1,0,.92,1.76,1.76,0,0,1-1.61,0,.49.49,0,0,1,0-.92A1.76,1.76,0,0,1,251.08,97.57Z"/><ellipse class="cls-1" cx="254.46" cy="95.61" rx="1.13" ry="0.65"/><ellipse class="cls-1" cx="258.65" cy="93.19" rx="1.13" ry="0.65"/><path class="cls-1" d="M203.39,119.34a1.74,1.74,0,0,1,1.6,0,.48.48,0,0,1,.32.6.47.47,0,0,1-.32.32,1.74,1.74,0,0,1-1.6,0,.49.49,0,0,1,0-.92Z"/><path class="cls-1" d="M230.13,104.82a.48.48,0,0,1,.31.62.48.48,0,0,1-.31.31,1.8,1.8,0,0,1-1.6,0,.48.48,0,0,1-.31-.62.48.48,0,0,1,.31-.31A1.8,1.8,0,0,1,230.13,104.82Z"/><path class="cls-1" d="M234.32,102.41a.49.49,0,0,1,0,.92,1.74,1.74,0,0,1-1.6,0,.49.49,0,0,1,0-.92A1.74,1.74,0,0,1,234.32,102.41Z"/><path class="cls-1" d="M238.51,100a.49.49,0,0,1,0,.92,1.74,1.74,0,0,1-1.6,0,.48.48,0,0,1-.32-.6.47.47,0,0,1,.32-.32A1.74,1.74,0,0,1,238.51,100Z"/><path class="cls-1" d="M242.7,97.57a.49.49,0,0,1,0,.92,1.74,1.74,0,0,1-1.6,0,.48.48,0,0,1-.32-.6.47.47,0,0,1,.32-.32A1.74,1.74,0,0,1,242.7,97.57Z"/><ellipse class="cls-1" cx="246.09" cy="95.61" rx="1.13" ry="0.65"/><path class="cls-1" d="M251.08,92.73a.48.48,0,0,1,.31.62.48.48,0,0,1-.31.31,1.82,1.82,0,0,1-1.61,0,.48.48,0,0,1-.31-.62.48.48,0,0,1,.31-.31A1.82,1.82,0,0,1,251.08,92.73Z"/><ellipse class="cls-1" cx="254.46" cy="90.78" rx="1.13" ry="0.65"/><path class="cls-1" d="M259.45,87.89c.45.26.45.67,0,.93a1.8,1.8,0,0,1-1.6,0,.48.48,0,0,1-.31-.62.48.48,0,0,1,.31-.31A1.8,1.8,0,0,1,259.45,87.89Z"/><path class="cls-1" d="M230.13,100a.49.49,0,0,1,0,.92,1.74,1.74,0,0,1-1.6,0,.49.49,0,0,1,0-.92A1.74,1.74,0,0,1,230.13,100Z"/><ellipse class="cls-1" cx="254.46" cy="85.94" rx="1.13" ry="0.65"/><path class="cls-1" d="M204.92,46.73a.48.48,0,0,1,.32.6.47.47,0,0,1-.32.32,1.74,1.74,0,0,1-1.6,0,.49.49,0,0,1,0-.92A1.74,1.74,0,0,1,204.92,46.73Z"/><path class="cls-1" d="M216.12,126.21a1.74,1.74,0,0,1,1.6,0c.45.25.45.66,0,.92a1.76,1.76,0,0,1-1.61,0,.49.49,0,0,1-.28-.63A.46.46,0,0,1,216.12,126.21Z"/><path class="cls-1" d="M221.92,123.79a.49.49,0,0,1,0,.92,1.76,1.76,0,0,1-1.61,0,.49.49,0,0,1,0-.92A1.76,1.76,0,0,1,221.92,123.79Z"/><path class="cls-1" d="M226.11,121.37a.49.49,0,0,1,0,.92,1.76,1.76,0,0,1-1.61,0,.49.49,0,0,1,0-.92A1.76,1.76,0,0,1,226.11,121.37Z"/><path class="cls-1" d="M230.29,119a.48.48,0,0,1,.32.6.47.47,0,0,1-.32.32,1.74,1.74,0,0,1-1.6,0,.49.49,0,0,1,0-.92A1.74,1.74,0,0,1,230.29,119Z"/><path class="cls-1" d="M234.48,116.53c.45.26.45.67,0,.92a1.74,1.74,0,0,1-1.6,0c-.44-.25-.44-.66,0-.92A1.74,1.74,0,0,1,234.48,116.53Z"/><path class="cls-1" d="M238.67,114.11c.45.26.45.67,0,.93a1.8,1.8,0,0,1-1.6,0,.48.48,0,0,1-.31-.62.48.48,0,0,1,.31-.31A1.8,1.8,0,0,1,238.67,114.11Z"/><path class="cls-1" d="M242.86,111.69a.48.48,0,0,1,.31.62.48.48,0,0,1-.31.31,1.8,1.8,0,0,1-1.6,0A.48.48,0,0,1,241,112a.48.48,0,0,1,.31-.31A1.8,1.8,0,0,1,242.86,111.69Z"/><path class="cls-1" d="M247.05,109.27a.48.48,0,0,1,.31.62.48.48,0,0,1-.31.31,1.8,1.8,0,0,1-1.6,0,.48.48,0,0,1-.31-.62.48.48,0,0,1,.31-.31A1.8,1.8,0,0,1,247.05,109.27Z"/><path class="cls-1" d="M251.24,106.86a.49.49,0,0,1,0,.92,1.74,1.74,0,0,1-1.6,0,.49.49,0,0,1,0-.92A1.74,1.74,0,0,1,251.24,106.86Z"/><ellipse class="cls-1" cx="254.63" cy="104.9" rx="1.13" ry="0.65"/><path class="cls-1" d="M211.93,123.79a1.74,1.74,0,0,1,1.6,0,.48.48,0,0,1,.32.6.47.47,0,0,1-.32.32,1.76,1.76,0,0,1-1.61,0,.49.49,0,0,1-.28-.63A.46.46,0,0,1,211.93,123.79Z"/><path class="cls-1" d="M217.73,121.37a.49.49,0,0,1,0,.92,1.74,1.74,0,0,1-1.6,0,.48.48,0,0,1-.32-.6.47.47,0,0,1,.32-.32A1.74,1.74,0,0,1,217.73,121.37Z"/><path class="cls-1" d="M221.92,119a.49.49,0,0,1,0,.92,1.76,1.76,0,0,1-1.61,0,.49.49,0,0,1,0-.92A1.76,1.76,0,0,1,221.92,119Z"/><path class="cls-1" d="M226.11,116.53c.44.26.44.67,0,.92a1.76,1.76,0,0,1-1.61,0c-.44-.25-.44-.66,0-.92A1.76,1.76,0,0,1,226.11,116.53Z"/><path class="cls-1" d="M230.29,114.11c.45.26.45.67,0,.93a1.8,1.8,0,0,1-1.6,0,.48.48,0,0,1-.31-.62.48.48,0,0,1,.31-.31A1.8,1.8,0,0,1,230.29,114.11Z"/><path class="cls-1" d="M234.48,111.69c.45.26.45.67,0,.93a1.8,1.8,0,0,1-1.6,0,.48.48,0,0,1-.31-.62.48.48,0,0,1,.31-.31A1.8,1.8,0,0,1,234.48,111.69Z"/><path class="cls-1" d="M238.67,109.27c.45.26.45.67,0,.93a1.8,1.8,0,0,1-1.6,0,.48.48,0,0,1-.31-.62.48.48,0,0,1,.31-.31A1.8,1.8,0,0,1,238.67,109.27Z"/><ellipse class="cls-1" cx="242.06" cy="107.32" rx="1.13" ry="0.65"/><ellipse class="cls-1" cx="246.25" cy="104.9" rx="1.13" ry="0.65"/><path class="cls-1" d="M251.24,102a.49.49,0,0,1,0,.92,1.74,1.74,0,0,1-1.6,0,.49.49,0,0,1,0-.92A1.74,1.74,0,0,1,251.24,102Z"/><path class="cls-1" d="M255.43,99.6c.44.26.44.67,0,.92a1.74,1.74,0,0,1-1.6,0c-.45-.25-.45-.66,0-.92A1.74,1.74,0,0,1,255.43,99.6Z"/><path class="cls-1" d="M259.62,97.18a.48.48,0,0,1,.31.62.48.48,0,0,1-.31.31,1.8,1.8,0,0,1-1.6,0c-.45-.26-.45-.67,0-.93A1.8,1.8,0,0,1,259.62,97.18Z"/><path class="cls-2" d="M69.42,66c-1.32-2.72-7.41-5.4-8.19-5.73s-3.2-.8-2.49,3.35,4.48,6.3,4.47,7.34-1,2.37-1.25,3.12c-.32,1.19.33,2,1.51,1.82s5.34-4.76,6.06-6.34A3.72,3.72,0,0,0,69.42,66Z"/><path class="cls-1" d="M69.87,65.76c-1.47-3-8.16-5.85-8.45-6A2.47,2.47,0,0,0,59,60c-.79.63-1,1.88-.72,3.72a8.27,8.27,0,0,0,.37,1.38,9,9,0,0,0,.13,1.37c.47,2.78,2.32,4.66,3.49,5.92l-.23.43A7,7,0,0,0,61.52,74a2,2,0,0,0,.35,2,1.48,1.48,0,0,0,.43.31,4.34,4.34,0,0,0-.3.7c-.32,1.18.33,2,1.51,1.81s5.34-4.76,6.06-6.34A3.64,3.64,0,0,0,69.86,70l.12-.24A4.21,4.21,0,0,0,69.87,65.76Zm-10.29-5a1.11,1.11,0,0,1,.66-.19,2.19,2.19,0,0,1,.8.16c2.28,1,6.89,3.34,7.93,5.49a3.25,3.25,0,0,1,.35,2.44C67.83,66,62,63.41,61.23,63.09a2,2,0,0,0-2,.17c-.23-1.26-.09-2.17.35-2.52Zm3,14.47a1.11,1.11,0,0,1-.13-1,8.1,8.1,0,0,1,.45-.94V73.2a1.15,1.15,0,0,1,.28.61,4.09,4.09,0,0,1-.48,1.53.8.8,0,0,1-.13-.13Z"/><path class="cls-2" d="M235.67,97.38s-4.57,3.61-13.82-2.19-16.85-5.43-21.92-2,3.87-27.19,4.29-27.9,17.63-16.85,19.26-16.85S244,67.11,244,67.11Z"/><path class="cls-1" d="M231.43,99c-2.36,0-5.64-.74-9.84-3.38-8.15-5.12-15.75-5.83-21.38-2-.9.61-1.46.31-1.71.07C195.66,91,203.66,65.26,203.79,65s17.57-17.1,19.69-17.1c1.66,0,15.12,13.15,20.83,18.81l.21.21L236.1,97.67l-.12.1A7.56,7.56,0,0,1,231.43,99Zm-23-8.81c3.67,0,8.25,1.14,13.73,4.58,8,5,12.34,2.79,13.11,2.3l8.17-29.81c-7.07-7-18.57-18-20-18.32-1.62.33-18,15.52-18.8,16.62-1,2.19-7.33,25.8-5.45,27.39a.76.76,0,0,0,.46-.16,15.35,15.35,0,0,1,8.74-2.6Z"/><path class="cls-2" d="M116.44,167s-4.57,3.61-13.82-2.19-16.85-5.43-21.92-2S84.57,135.63,85,134.9s17.63-16.85,19.26-16.85,20.48,18.66,20.48,18.66Z"/><path class="cls-1" d="M112.2,168.63c-2.35,0-5.63-.74-9.84-3.38-8.15-5.12-15.75-5.83-21.38-2-.9.61-1.46.31-1.71.07-2.84-2.64,5.16-28.42,5.29-28.64s17.57-17.1,19.69-17.1c1.66,0,15.12,13.15,20.83,18.81l.21.2-8.42,30.72-.12.1A7.55,7.55,0,0,1,112.2,168.63Zm-23-8.81c3.67,0,8.25,1.14,13.73,4.58,8,5,12.34,2.78,13.11,2.3l8.17-29.82c-7.07-7-18.57-18-20-18.31-1.62.33-18,15.52-18.8,16.62-1,2.19-7.33,25.8-5.45,27.39a.76.76,0,0,0,.46-.16,15.35,15.35,0,0,1,8.74-2.6Z"/><path class="cls-2" d="M95.6,187.25a22,22,0,0,1-10.79-3.49c-5.62-3.54-8.48-5.3-10.14-7.39s8.87-20.25,8.87-20.25l7.66-12s11.9,4.24,17.25,9.92-6.63,21.47-6.63,21.47Z"/><path class="cls-1" d="M112.31,161.05c-.39-3.29-1.6-5.79-3.46-7.29h0c-5.37-5.7-17-9.87-17.44-10l-.38-.13L83.1,155.87c-2.5,4.33-10.55,18.63-8.82,20.81s4.36,3.79,9.74,7.17l.52.33a23.65,23.65,0,0,0,9.07,3.39,7.3,7.3,0,0,0,1.61.19h.69a12.09,12.09,0,0,0,6-2.54C108.62,180.19,113.28,169.36,112.31,161.05ZM84.55,183c-5.28-3.33-7.93-5-9.48-6.95C74.17,174.94,79,165,84,156.39l7.44-11.64c1.76.66,9.34,3.65,14.42,7.62-2.44-.44-5.21.38-8,2.44-6.71,5-11.38,15.83-10.4,24.14a11.11,11.11,0,0,0,3,6.84,23.15,23.15,0,0,1-5.32-2.46Z"/><path class="cls-2" d="M96.53,182.91a5.09,5.09,0,0,1-2-.42c-2-.87-3.34-3-3.7-6-.7-6,2.68-13.86,7.54-17.48,2.44-1.82,4.9-2.34,6.93-1.47s3.34,3,3.69,6.05c.71,6-2.67,13.86-7.53,17.48A8.36,8.36,0,0,1,96.53,182.91Zm6.68-24.82a7.44,7.44,0,0,0-4.29,1.68c-4.6,3.43-7.8,10.86-7.13,16.56.31,2.66,1.41,4.52,3.09,5.25s3.8.24,5.94-1.35c4.6-3.43,7.81-10.86,7.14-16.57-.31-2.65-1.41-4.51-3.1-5.24A4.23,4.23,0,0,0,103.21,158.09Z"/><path class="cls-2" d="M96.53,182.89a5,5,0,0,1-3.1-1l-.87-.82L93.7,181a7.65,7.65,0,0,0,4-1.66c4.6-3.43,7.81-10.86,7.14-16.57a6.79,6.79,0,0,0-2.25-4.72l-.93-.71,1.2-.19c3.3-.2,5.61,2.26,6.1,6.44.71,6-2.67,13.86-7.53,17.48A8.34,8.34,0,0,1,96.53,182.89Zm-1.31-1.19c1.61.54,3.58,0,5.6-1.47,4.6-3.43,7.81-10.86,7.14-16.56h0c-.35-3-1.76-5-3.78-5.46a8.71,8.71,0,0,1,1.64,4.41c.71,6-2.67,13.86-7.53,17.48A9.89,9.89,0,0,1,95.22,181.7Z"/><path class="cls-3" d="M104.36,167.7a9.82,9.82,0,0,1-3.52,8.17c-2.27,1.69-4.38.78-4.71-2a9.79,9.79,0,0,1,3.52-8.16C101.92,164,104,164.88,104.36,167.7Z"/><path class="cls-2" d="M213,120a21.86,21.86,0,0,1-10.79-3.49c-5.62-3.53-8.48-5.29-10.13-7.38s8.86-20.25,8.86-20.25l7.66-12s11.9,4.24,17.25,9.92-6.62,21.46-6.62,21.46Z"/><path class="cls-1" d="M229.69,93.83c-.38-3.28-1.6-5.79-3.46-7.28h0c-5.37-5.7-17-9.88-17.45-10l-.37-.14L200.52,88.7C198,93,190,107.32,191.7,109.51s4.36,3.79,9.74,7.17l.51.33A23.71,23.71,0,0,0,211,120.4a7.32,7.32,0,0,0,1.62.19h.68a11.88,11.88,0,0,0,6-2.54C226,113,230.67,102.14,229.69,93.83Zm-27.75,22c-5.29-3.32-7.94-5-9.49-6.94-.89-1.13,3.93-11.1,8.89-19.67l7.45-11.64c1.76.66,9.34,3.64,14.41,7.62-2.44-.45-5.21.38-8,2.44-6.71,5-11.37,15.83-10.4,24.14a11.22,11.22,0,0,0,3,6.84,23.08,23.08,0,0,1-5.31-2.46Z"/><path class="cls-2" d="M213.91,115.7a5.09,5.09,0,0,1-2-.42c-2-.87-3.34-3-3.69-6-.71-6,2.67-13.86,7.53-17.48,2.44-1.82,4.9-2.34,6.93-1.47s3.34,3,3.7,6c.7,6-2.68,13.87-7.54,17.49A8.4,8.4,0,0,1,213.91,115.7Zm6.69-24.82a7.41,7.41,0,0,0-4.29,1.68c-4.61,3.43-7.81,10.86-7.14,16.56.31,2.66,1.41,4.52,3.1,5.24s3.79.25,5.93-1.35c4.61-3.43,7.81-10.86,7.14-16.56-.31-2.65-1.41-4.51-3.09-5.24A4.23,4.23,0,0,0,220.6,90.88Z"/><path class="cls-2" d="M213.91,115.68a5,5,0,0,1-3.1-1l-.87-.83,1.15-.07a7.67,7.67,0,0,0,4-1.67c4.61-3.43,7.81-10.86,7.14-16.56A6.74,6.74,0,0,0,220,90.79l-.92-.71,1.19-.18c3.3-.2,5.61,2.26,6.11,6.44.7,6-2.68,13.86-7.54,17.48A8.38,8.38,0,0,1,213.91,115.68Zm-1.31-1.2c1.61.54,3.59,0,5.6-1.46,4.61-3.43,7.81-10.86,7.14-16.57h0c-.35-3-1.75-5-3.77-5.46a8.78,8.78,0,0,1,1.63,4.41c.71,6-2.67,13.86-7.53,17.49A10.08,10.08,0,0,1,212.6,114.48Z"/><path class="cls-3" d="M221.75,100.49a9.82,9.82,0,0,1-3.52,8.16c-2.28,1.7-4.39.79-4.72-2a9.87,9.87,0,0,1,3.49-8.2C219.31,96.76,221.42,97.67,221.75,100.49Z"/><path class="cls-2" d="M214.62,15.5C195,4.2,185,2.37,185,2.37h0a.43.43,0,0,0-.58,0l-5.93,3.42S174.22,8,163.88,8.07s-36.44,5.9-56,18.14S74.34,54.6,64.66,66.83s-10.34,14-13.49,16.62S30.06,99.08,19.29,110.13,3.93,129.48,3.93,131a8.12,8.12,0,0,0,1.24,4.73l.09,8.4L3.93,152a2.8,2.8,0,0,0,.57,1.74h0s4,6.85,21.12,17.19C51.07,186.27,70.77,192,70.77,192l11-35,58-44.47,92.9-62.69,11.21-3.22,7-6.27A314.61,314.61,0,0,0,214.62,15.5Z"/><path class="cls-3" d="M215.35,19.23C195.75,7.92,185.69,6.1,185.69,6.1h0a.43.43,0,0,0-.58,0l-5.92,3.42s-4.24,2.3-14.58,2.33-36.44,5.9-56,18.14S75.07,58.33,65.39,70.56s-10.34,14-13.49,16.62S30.79,102.8,20,113.86,4.66,133.2,4.66,134.75a8.12,8.12,0,0,0,1.24,4.73l.08,8.4-1.32,7.8a2.85,2.85,0,0,0,.56,1.74h0s4,6.84,21.12,17.19a230.66,230.66,0,0,0,39.15,19.06,6.07,6.07,0,0,0,7.78-3.6l.09-.28,19-41.38,48.19-32.14,92.9-62.68,11.21-3.23,2-1.82a5.53,5.53,0,0,0-.35-8.57A310.5,310.5,0,0,0,215.35,19.23Z"/><path class="cls-1" d="M71.16,192.59l-.47-.13c-.2-.06-20.06-5.9-45.28-21.15C8.72,161.21,4.44,154.49,4.13,154a3.21,3.21,0,0,1-.64-2l1.33-7.87L4.73,136a8.78,8.78,0,0,1-1.24-5c0-1.8,4.68-10.13,15.5-21.24,8.59-8.82,21.91-19,28.32-23.93,1.71-1.31,3-2.26,3.6-2.79,1.94-1.6,2.9-2.88,5.77-6.66,1.71-2.25,4-5.34,7.64-9.89,10-12.58,23.88-28.58,43.32-40.73C128.13,13,154.42,7.6,163.94,7.57c10.05,0,14.3-2.24,14.34-2.26l5.91-3.42a1,1,0,0,1,1.05,0c1.28.26,11.19,2.5,29.69,13.17h0A317.56,317.56,0,0,1,251.27,40l.45.37-7.62,6.77L233,50.32,140.13,113,82.24,157.32Zm-66-38.93C6,154.91,10.9,161.34,26,170.45c23,13.89,41.44,19.93,44.57,20.9l10.88-34.63.13-.1,58-44.47,93-62.75,11.17-3.21,6.47-5.8a315.23,315.23,0,0,0-35.75-24.45h0C195.16,4.82,185,2.88,184.93,2.86h-.15l-.11-.11-5.9,3.46c-.19.1-4.49,2.36-14.83,2.39-9.42,0-35.45,5.37-55.77,18.07-19.31,12-33.17,28-43.06,40.47-3.59,4.54-5.93,7.62-7.63,9.87-2.92,3.86-3.91,5.16-5.94,6.83-.65.54-1.9,1.49-3.63,2.82-6.38,4.89-19.67,15.06-28.2,23.82C9,121.46,4.49,129.63,4.49,131a7.66,7.66,0,0,0,1.13,4.42l.11.13v.17l.08,8.4L4.48,152a2.3,2.3,0,0,0,.44,1.32l.23.26Z"/><path class="cls-1" d="M251.27,40c-.13-.1-9.69-7.85-22.7-16.45a1.5,1.5,0,0,0-.43-1.93l-4.43-3.33a49.57,49.57,0,0,0-8.34-5.06l-4.84-2.33a1.22,1.22,0,0,0-1.71.8c-14.57-7.77-22.45-9.55-23.58-9.78a1,1,0,0,0-1.05,0l-6.88,4,1.05.35c.15,0,15.4,5.26,36.11,18.23a223,223,0,0,1,28,20.39l2.45,1.61,6.8-6.1Zm-6.44,5.21-1.75-1.14A222.63,222.63,0,0,0,215,23.61C197.25,12.49,183.47,7,179.7,5.64l5-2.88.07.07h.15c.09,0,8.27,1.58,24,10l.14.86a1.91,1.91,0,0,0,.88,1.31l15,9.29a2.57,2.57,0,0,0,2.3.18l.61-.26c11.48,7.57,20.31,14.5,22.37,16.15Z"/><path class="cls-2" d="M113.47,111.75a6.41,6.41,0,0,0,8.25-1.61c4.46-5.71,10.41-13.44,15.52-19.13s8.79-9.18,14.27-14.36c1.75-1.65,1.1-4.72-1-5.93l-51-29.61a6.44,6.44,0,0,0-7.4.65A150.26,150.26,0,0,0,77.25,56.65c-6.19,7-13,16-16.53,20.51a3.15,3.15,0,0,0,.54,4.42,3,3,0,0,0,.37.25Z"/><path class="cls-1" d="M153,73.68a4.58,4.58,0,0,0-2.21-3.42l-51-29.61a9.18,9.18,0,0,0-1-.48l-.29-.11h0a6.93,6.93,0,0,0-6.63,1.28,147.21,147.21,0,0,0-15,15c-5.1,5.76-10.7,13-14.4,17.75-.81,1.05-1.53,2-2.15,2.78a3.57,3.57,0,0,0-.71,2.94,3.64,3.64,0,0,0,1.76,2.47l51.83,29.92h0a6.77,6.77,0,0,0,3.43.91,6.94,6.94,0,0,0,5.47-2.64l1.29-1.66c4.27-5.48,9.59-12.3,14.21-17.45,4.86-5.41,8.62-9,14.23-14.33A3.72,3.72,0,0,0,153,74.62,4.92,4.92,0,0,0,153,73.68Zm-1.83,2.58c-5.63,5.32-9.4,8.94-14.29,14.38-4.55,5.08-9.69,11.66-13.87,17L71.19,77.75a2.64,2.64,0,0,1-1-3.59l.23-.33L72.6,71c3.69-4.77,9.27-12,14.34-17.7,4.2-4.74,8.12-8.81,11.68-12.09.2.09.41.18.61.29l51.05,29.61A3.62,3.62,0,0,1,152,73.83a3.86,3.86,0,0,1,0,.68,2.67,2.67,0,0,1-.84,1.75Zm-29.83,33.57a6,6,0,0,1-7.62,1.48L61.88,81.4a2.67,2.67,0,0,1-1-3.64,3,3,0,0,1,.2-.29c.63-.8,1.35-1.74,2.16-2.78,3.7-4.77,9.28-12,14.36-17.71A147.8,147.8,0,0,1,92.4,42.14a6,6,0,0,1,5.14-1.25c-3.47,3.24-7.28,7.19-11.35,11.79-5.09,5.76-10.68,13-14.38,17.74l-2.17,2.79a3.65,3.65,0,0,0,.59,5.13,3.71,3.71,0,0,0,.41.28l51.71,29.84Z"/><path class="cls-2" d="M209.18,45.13A77.6,77.6,0,0,1,224.42,43a57.17,57.17,0,0,0,7.84-.54l.08-.07S215.54,29.63,200,21.12s-21.43-10.76-21.43-10.76h0a52.13,52.13,0,0,1-9,.73A75.55,75.55,0,0,0,155.29,13a.74.74,0,0,0-.22,1.36L208.94,45.1Z"/><path class="cls-1" d="M232.65,42c-.17-.13-17-12.9-32.46-21.34C185,12.37,178.72,9.87,178.43,9.87h0a52.4,52.4,0,0,1-8.93.72,76.76,76.76,0,0,0-14.32,1.89,1.22,1.22,0,0,0-.4,2.26l53.87,30.78.52.09h.17a78.17,78.17,0,0,1,15.14-2.09h2.62l1.43-.06h0c1.32-.09,2.58-.22,3.78-.4h.14l.68-.55Zm-8.23.51a77.55,77.55,0,0,0-15.24,2.09L159.65,16.31a60.34,60.34,0,0,1,9-.92,54.34,54.34,0,0,0,9-.71c.93.38,7.1,2.95,21.24,10.68a276.82,276.82,0,0,1,26.72,17.15Zm2.84-.08a283.63,283.63,0,0,0-27.88-18c-15.19-8.3-21.47-10.81-21.76-10.81h0a52.4,52.4,0,0,1-8.93.72,64.75,64.75,0,0,0-10.48,1.15l-2.89-1.65a.21.21,0,0,1-.11-.23.22.22,0,0,1,.18-.2,75.36,75.36,0,0,1,14.11-1.87,54.34,54.34,0,0,0,9-.71c.93.37,7.1,2.94,21.24,10.68,13.32,7.28,27.71,17.81,31.42,20.58a37.4,37.4,0,0,1-3.9.36Z"/><path class="cls-2" d="M24.29,134.42l1.8,8.15a6.28,6.28,0,0,0,2.4,3.89l1.69,1.26c3.39,2.53,4.21,3.3,8.09,5l3.27,1.43a8,8,0,0,0,5.2.43l7.35-2a1.87,1.87,0,0,0,1.33-2.27,1.84,1.84,0,0,0-.82-1.11l-11.11-7.46c-1.34-.82-2.71-1.6-4.11-2.32l-12.79-6.65a1.61,1.61,0,0,0-2.15.72A1.64,1.64,0,0,0,24.29,134.42Z"/><path class="cls-1" d="M37.59,143.55a2.36,2.36,0,0,1-1.19-.32L34.22,142a2.16,2.16,0,0,1-1.06-1.77l-.37-1.89a1.73,1.73,0,0,1,.8-1.67,1.68,1.68,0,0,1,1.73,0l5.25,3.12a1.75,1.75,0,0,1,.85,1.63,1.73,1.73,0,0,1-1.07,1.5l-2,.54A2,2,0,0,1,37.59,143.55Zm-3.13-6.17a.75.75,0,0,0-.36.1.74.74,0,0,0-.33.68l.38,1.91a1.22,1.22,0,0,0,.58,1l2.18,1.28a1.33,1.33,0,0,0,1.12.1l2-.55a.76.76,0,0,0,0-1.32l-5.25-3.12A.85.85,0,0,0,34.46,137.38Z"/><path class="cls-1" d="M57.34,143.71l-14-8.82c-1.35-.83-2.74-1.61-4.14-2.34L26.4,125.9a2.09,2.09,0,0,0-2.81.92,2,2,0,0,0-.19,1.33v.15a2.07,2.07,0,0,0-1.95,2.2,1.15,1.15,0,0,0,0,.26l1.79,8.15a6.79,6.79,0,0,0,2.6,4.2l1.69,1.26a56.28,56.28,0,0,0,11,6.42l3.26,1.43a8.6,8.6,0,0,0,3.43.71,8.36,8.36,0,0,0,2.11-.27l7.34-2a2.34,2.34,0,0,0,1.75-1.93,2.43,2.43,0,0,0,0-.66h.14a2.35,2.35,0,0,0,.65-4.29Zm-1.78,4.84a1.35,1.35,0,0,1-1,1.11l-7.33,2a7.58,7.58,0,0,1-4.88-.4l-3.27-1.43a54.06,54.06,0,0,1-10.84-6.3l-1.69-1.26a5.78,5.78,0,0,1-2.22-3.6l-1.79-8.14a1.09,1.09,0,0,1,1.57-1.16L36.91,136c1.39.73,2.76,1.5,4.07,2.3l14,8.83A1.35,1.35,0,0,1,55.56,148.55Zm1.89-2.63a1.36,1.36,0,0,1-1,1.12h-.18a2.2,2.2,0,0,0-.8-.83l-14-8.83c-1.35-.82-2.74-1.61-4.14-2.34l-12.8-6.65h0l-.1-.46A1.1,1.1,0,0,1,26,126.79l12.8,6.64c1.38.72,2.75,1.5,4.07,2.31l14,8.82h0A1.37,1.37,0,0,1,57.45,145.92Z"/><path class="cls-2" d="M13.75,116.2a74,74,0,0,0-6.45,8.3s-.22,5.9,2.27,8.26c1.59,1.5,3.22,2.91,4.19,3.73a2.65,2.65,0,0,0,2,.62l1.5-.18a2,2,0,0,0,1.8-2.18v-.06c-.36-3.18-1.25-9.43-3.11-13.91A39.22,39.22,0,0,0,13.75,116.2Z"/><path class="cls-3" d="M13.11,125.05c-3.31-.25-4.1,5.19-4.24,6.55a6.84,6.84,0,0,0,.85,1.15c1.59,1.5,3.22,2.91,4.19,3.73a2.4,2.4,0,0,0,.76.44s.74-7.22-.36-11.19A1.7,1.7,0,0,0,13.11,125.05Z"/><path class="cls-1" d="M19.58,134.63c-.37-3.31-1.28-9.54-3.15-14A39.55,39.55,0,0,0,14.18,116l-.35-.6-.46.52a74.67,74.67,0,0,0-6.49,8.35l-.08.12v.14c0,.25-.21,6.15,2.43,8.64,1.56,1.47,3.15,2.86,4.2,3.75a3.07,3.07,0,0,0,1.6.71h.1a2.89,2.89,0,0,0,.72,0l1.49-.17a2.54,2.54,0,0,0,2.24-2.81Zm-5.31,1.48h0c-1-.89-2.62-2.25-4.17-3.72A13,13,0,0,1,8.53,130c.09-1.21.64-4.43,2.11-5.71a2.12,2.12,0,0,1,1.61-.55,1.16,1.16,0,0,1,.83.47C14.65,126.06,14.57,132.41,14.27,136.11Zm3,.33-1.5.17a2.09,2.09,0,0,1-.5,0c.18-2.06.79-10.48-1.38-13.08a2.21,2.21,0,0,0-1.52-.83h0a3.08,3.08,0,0,0-2.43.87A8.09,8.09,0,0,0,8,127.4a21,21,0,0,1-.17-2.75,74,74,0,0,1,5.86-7.58,40.92,40.92,0,0,1,1.86,3.9c1.82,4.39,2.71,10.51,3.08,13.77a1.55,1.55,0,0,1-1.39,1.7h0Z"/><path class="cls-2" d="M70.87,161.46s-7.35,3.35-10.2,2.3a53.93,53.93,0,0,1-7.1-3c-1.72-1-2.47-4.17-1.62-4.76,4-2.73,20-5.19,25-5.31a13.58,13.58,0,0,1,5.67.68c.78.31,1.72,1.07.21,2.35Z"/><path class="cls-3" d="M67,162.94s1.56-2.95,1.28-5.3a3.47,3.47,0,0,0-1.82-.89c-3.93-.72-8.53,3.12-10.51,5,1.33.58,2.95,1.21,4.7,1.85C62.16,164.15,65.05,163.69,67,162.94Z"/><path class="cls-3" d="M82.45,154a1,1,0,0,0-.58-.63,13.76,13.76,0,0,0-4.62-.87c.7,1.6-.64,3.71-2.08,5.36a13.67,13.67,0,0,1-1.26,1.66Z"/><path class="cls-1" d="M83.39,151.1l-.56-.2h0c-1.24-.5-2.66-.8-5.86-.72h-.84l-1.6.12-1.67.13h.08c-6.88.77-17.92,2.81-21.25,5.09a1.72,1.72,0,0,0-.57,1.57,5.33,5.33,0,0,0,2.22,4,55,55,0,0,0,7.18,3,4.41,4.41,0,0,0,1.53.23A13.86,13.86,0,0,0,65.2,164a16.42,16.42,0,0,0,1.82-.52h.18a38.67,38.67,0,0,0,3.87-1.5l1.67-1.08h0l10.79-7a1.53,1.53,0,0,0,.74-1.44A1.48,1.48,0,0,0,83.39,151.1Zm-7.27,6.36A6.87,6.87,0,0,0,78,153.23a2.78,2.78,0,0,0-1-2h0a16.19,16.19,0,0,1,5.49.65c.39.16.65.38.68.57s-.19.56-.57.89l-.84.54Zm-9.45,5.07c-.61.2-1.24.38-1.86.53a8.21,8.21,0,0,1-4,.07c-2.54-.93-4.52-1.73-5.88-2.38,1.54-1.52,6.53-6.1,10.57-5.35a2.54,2.54,0,0,1,2,1.34c.88,1.69-.23,4.6-.83,5.79Zm4-1.51c-.62.28-1.57.68-2.66,1.07.58-1.42,1.35-3.91.52-5.72a3.5,3.5,0,0,0-2.77-2c-4.94-.89-10.74,4.87-11.79,6l-.11-.06a4.3,4.3,0,0,1-1.72-3.21c0-.49.1-.68.14-.7,3.49-2.4,16.55-4.6,22.83-5.12,1.11.42,1.73,1,1.86,1.79.37,2.27-3.26,5.74-4.7,6.91Z"/><path class="cls-1" d="M254.41,68.23a6.87,6.87,0,0,0-2.19-5.07l-1.5-16.63.9-5.11a1.47,1.47,0,0,0-.44-1.52,1,1,0,0,0-1.06,0l-5.91,3.41s-4.29,2.23-14.34,2.27c-9.52,0-35.81,5.4-56.3,18.21C154.13,76,140.21,92,130.25,104.53c-3.59,4.54-5.93,7.63-7.64,9.88-2.87,3.79-3.83,5.06-5.77,6.66-.64.53-1.88,1.48-3.6,2.8-6.41,4.9-19.73,15.1-28.32,23.92-.64.66-1.17,1.26-1.7,1.84-.38.44-.76.87-1.18,1.31l-.65.69.93.15c.83.13,1.21.38,1.28.56s-.08.42-.17.56a50,50,0,0,1-7,8.55,21.72,21.72,0,0,1-3.65,2.66c-2.49,1.53-4.28,2.64-3.22,7a.69.69,0,0,1,0,.35,1.84,1.84,0,0,0-.06.47,3.78,3.78,0,0,0,.51,1.49,5.87,5.87,0,0,1,.42,1c.35,1.34.35,1.37.31,1.79a12.68,12.68,0,0,0,0,1.51v.8a4.54,4.54,0,0,1-1.08,3.25A4.87,4.87,0,0,1,66.1,183c-5.2,0-22.16-8.34-35.72-16.09-12.22-7-20.75-13.36-25.38-19L4.3,147l-.82,5.05a3.21,3.21,0,0,0,.64,2c.31.52,4.59,7.24,21.28,17.34,25.22,15.25,45.08,21.09,45.19,21.11a1.58,1.58,0,0,0,.77.17,4.59,4.59,0,0,0,1.46-.31c2-.72,7.37-2.91,10.38-4.16a3.51,3.51,0,0,0,2.15-3.62,52.18,52.18,0,0,1,.3-14.5c2-11,6.91-19,14.57-23.66,3-1.85,5.8-2.16,8.25-.9,4,2,6.11,7.58,6.43,11.89a76.25,76.25,0,0,1,.22,8,2.21,2.21,0,0,0,3.34,2l82.27-48.54a3.18,3.18,0,0,0,1.55-3.07,44.64,44.64,0,0,1,1.29-16.71c3-10.34,7.92-17.18,14.88-20.92,3.38-1.82,6.53-2.06,9.09-.7,3,1.59,4.91,5.17,5.41,10.1.36,3.46.59,6.32.71,8.49A2.27,2.27,0,0,0,234.9,98a2.31,2.31,0,0,0,2.3-.1c3.8-2.32,10.5-6.9,13.22-11C254.12,81.25,254.67,72.51,254.41,68.23Z"/><path class="cls-2" d="M247,49.59a2.65,2.65,0,0,0-.58.48h0c-1.56,1.83-7.79,10.25-7.79,12,0,.12,0,.13.06.15.57.32,2.54-.35,5-1.52h0C247.92,58.57,247.32,51.79,247,49.59Z"/><path class="cls-2" d="M250.11,50.38l-.19-2.17-.32.12h-.11l-.19.08-.32.13h0l-.62.27L248,49h0c.24,1.44.92,6.63-1.17,10.08,1.8-1,3.34-1.87,3.93-2.22Z"/><path class="cls-2" d="M117.12,134.65h1.59a5.16,5.16,0,0,0,5.1-4.47l.14-1.07a1,1,0,0,0-1.59-1l-5.94,4.35a1.22,1.22,0,0,0,.7,2.19Zm-.11-1.32,6-4.33-.14,1.07a4.13,4.13,0,0,1-4.1,3.6h-1.59a.15.15,0,0,1-.17-.12.22.22,0,0,1,0-.22Z"/><path class="cls-2" d="M240.27,68c-1.63,0-3,1.66-3,3.7s1.32,3.69,3,3.69,2.94-1.65,2.94-3.69S241.89,68,240.27,68Zm0,6.39c-1.08,0-2-1.2-2-2.69s.87-2.7,2-2.7,1.94,1.21,1.94,2.7-.87,2.64-1.94,2.64Z"/><path class="cls-2" d="M218.16,52.69c-4.93.22-22.38,2.07-45,16.32h0l-.8.54-1.54,1-2.35,1.6-.3.2h0c-14,9.87-25.19,22.87-32.55,32.8h0c-4.15,5.62-7.08,10.25-8.6,12.76a2.18,2.18,0,0,0-.19,2.1h0l.09.17.13.1a24.58,24.58,0,0,1,5.14,13.3c.36,7.16.27,12.54.13,15.78a2.38,2.38,0,0,0,1.16,2.16,1.69,1.69,0,0,0,.31.13l-19.52,11.77.51.85,23.35-14.07,39.39-23.74h0l5.37-3.25,19.73-11.9-.52-.85-3.47,2.09a4.88,4.88,0,0,0,.35-1.89A47,47,0,0,1,200.47,98c1.47-5.73,5.09-11.44,7.11-14.34a6.7,6.7,0,0,0,.84-6,76.73,76.73,0,0,0-3-7.19,66.11,66.11,0,0,0,10.35-10.13h0a34,34,0,0,0,3.18-4.7,2.62,2.62,0,0,0,.16-2.46A1,1,0,0,0,218.16,52.69Zm-20.65,5.49,6.61,12c-1.92,1.51-4.07,3.09-6.5,4.72-5.54,3.72-13,8.68-20.87,13.87L173.35,70a119.52,119.52,0,0,1,24.16-11.85Zm-27,34.75-1.29-20.1,3.24-2.16,3.4,18.74Zm-2.25-19.42,1.28,20c-10.9,7.16-21.72,14.19-28.65,18.55a3.94,3.94,0,0,1-3.73-1.89c-1.37-2.59-.84-4.19-.69-4.54,7.2-9.69,18.12-22.39,31.77-32.12Zm-40.4,44.93c1.36-2.25,3.88-6.24,7.4-11.11a8.09,8.09,0,0,0,1,3.36,4.48,4.48,0,0,0,3.21,2.31c-2.23,1.39-4,2.44-5,3a60.78,60.78,0,0,1-6.8,3.49h0a1.54,1.54,0,0,1,.17-1Zm7.57,32.28a1.41,1.41,0,0,1-1.43,0,1.34,1.34,0,0,1-.68-1.25c.14-3.27.23-8.68-.13-15.88a25.16,25.16,0,0,0-4.88-13.26q2.56-1.15,6.65-3.43c4.22-2.37,19.32-12.12,34.66-22.19h0l3.5-2.31a37.92,37.92,0,0,1,3.53,12.6c.64,6.88,0,19-.12,20.94l-35.06,21.15ZM207.49,78a5.73,5.73,0,0,1-.73,5.08c-2.06,3-5.74,8.78-7.26,14.66a48.3,48.3,0,0,0-1.54,13,3.79,3.79,0,0,1-1.83,3.32L182.2,122.5l-4.63,2.79c.17-3.26.67-14,.07-20.41a38.1,38.1,0,0,0-3.7-13l3-2h0c8-5.28,15.62-10.34,21.24-14.11,2.38-1.6,4.5-3.15,6.4-4.64C205.18,72.4,206.67,75.63,207.49,78Zm-2.58-8.45-6.44-11.74a86.22,86.22,0,0,1,12.84-3.34,4,4,0,0,1,3.17,1.85c1.08,1.7.73,3.08.48,3.38h0a63,63,0,0,1-10.05,9.88Zm13.14-14.41a32.07,32.07,0,0,1-1.88,3,5.39,5.39,0,0,0-.85-2.32,4.92,4.92,0,0,0-1.78-1.67c2.06-.29,3.65-.41,4.68-.45a1.57,1.57,0,0,1-.17,1.47Z"/><path class="cls-2" d="M168.57,103.43a.91.91,0,0,0-1,0l-6.21,4a3.23,3.23,0,0,0-1.48,2.53l-.08,1.4a.94.94,0,0,0,.46.86.94.94,0,0,0,1,0l6.23-4.06A3.27,3.27,0,0,0,169,105.6l.06-1.33A.9.9,0,0,0,168.57,103.43Zm-.6,2.12a2.25,2.25,0,0,1-1,1.78l-6.1,4,.07-1.25a2.25,2.25,0,0,1,1-1.75l6.08-3.94Z"/><path class="cls-2" d="M192,90l-.08,1.39a.9.9,0,0,0,.46.86.93.93,0,0,0,.46.12.89.89,0,0,0,.5-.15l6.23-4.07A3.27,3.27,0,0,0,201,85.58l.06-1.33a.9.9,0,0,0-.46-.84,1,1,0,0,0-1,0l-6.2,4A3.26,3.26,0,0,0,192,90Zm2-1.7,6.07-4v1.18a2.25,2.25,0,0,1-1,1.78l-6.1,4L193,90a2.3,2.3,0,0,1,1-1.67Z"/><path class="cls-1" d="M141.78,106.42c3.24.4,8.16,5.38,8.77,6s2,2.81-2.52,3.45-8-2.3-9.09-2-2,1.75-2.74,2.19c-1.09.68-2.19.33-2.39-.87s2.95-6.63,4.3-7.82A4.16,4.16,0,0,1,141.78,106.42Z"/><path class="cls-2" d="M135.12,117a1.74,1.74,0,0,1-.75-.16,1.84,1.84,0,0,1-1.05-1.47c-.26-1.55,3.16-7.13,4.46-8.27a4.62,4.62,0,0,1,4.06-1.16h0c3.58.45,8.85,6,9.07,6.19a2.44,2.44,0,0,1,.73,2.38c-.34,1-1.53,1.62-3.53,1.91a13.52,13.52,0,0,1-7.34-1.41,5.79,5.79,0,0,0-1.67-.57,5.14,5.14,0,0,0-1.65,1.28,6.31,6.31,0,0,1-1,.86A2.55,2.55,0,0,1,135.12,117Zm5.74-10.13a3.42,3.42,0,0,0-2.42,1c-1.31,1.15-4.29,6.45-4.14,7.36a.9.9,0,0,0,.48.72,1.27,1.27,0,0,0,1.16-.2,6.94,6.94,0,0,0,.81-.72,5.64,5.64,0,0,1,2-1.52c.55-.18,1.28.13,2.37.6a12.41,12.41,0,0,0,6.8,1.34c2.11-.3,2.61-.91,2.73-1.25a1.52,1.52,0,0,0-.5-1.36c-.05-.06-5.24-5.48-8.47-5.88h0a7.35,7.35,0,0,0-.82-.11Z"/><path class="cls-2" d="M67.22,188.54a6.47,6.47,0,0,1-.38-5.78,5.93,5.93,0,0,1-.84.06h-.28a7.65,7.65,0,0,0,.59,6.22,10.3,10.3,0,0,0,2.84,3.25l1.51.48a1.68,1.68,0,0,0,.79.17,4.43,4.43,0,0,0,.51-.06A11.54,11.54,0,0,1,67.22,188.54Z"/><path class="cls-2" d="M77.53,180.69a13.41,13.41,0,0,1-8.06,1.11,3.64,3.64,0,0,1-1.24.77,12.93,12.93,0,0,0,3.5.45A14.62,14.62,0,0,0,78,181.61a17.07,17.07,0,0,0,7.18-7c.06-.92.16-1.86.28-2.8C84.73,173.45,82.27,178.45,77.53,180.69Z"/><path class="cls-2" d="M254.63,70.28V68.07a8.9,8.9,0,0,0-.19-1.36A22.28,22.28,0,0,1,244,82.53a39.31,39.31,0,0,1-11.27,4.77,1,1,0,0,0,.07.45c.07.16,0,.38,0,.57a39.9,39.9,0,0,0,11.67-4.92A22.93,22.93,0,0,0,254.63,70.28Z"/><path class="cls-1" d="M52.56,166.92a128.21,128.21,0,0,1-18.71-9C24.77,152.43,18.1,147.46,18,147.41l-.68-.51-1,7.26.24.17c.05,0,5.17,3.69,15,9.55A170.58,170.58,0,0,0,51.8,174l.65.26.46-7.21Z"/><path class="cls-2" d="M18.31,153.16v-3.47a3.34,3.34,0,0,0-1-2.42l-12-11.9.08,8.4-.08.49A73.11,73.11,0,0,0,17,153.93a.9.9,0,0,0,1.22-.4A1,1,0,0,0,18.31,153.16Z"/><path class="cls-2" d="M68.79,170.94s4.74.85,4.74,4.24-1.84,4.72-3.89,4.72c-4,0-14.11-4.67-17.65-6.36a2.19,2.19,0,0,1-1.24-2v-2.85a1.36,1.36,0,0,1,1.37-1.35,1.24,1.24,0,0,1,.27,0Z"/><path class="cls-3" d="M13.49,147c-.75-1.95-2.5-3.09-3.92-2.55a2.48,2.48,0,0,0-1.43,1.83c1.81,1.67,3.53,3.14,5.14,4.4A4.08,4.08,0,0,0,13.49,147Z"/><path class="cls-1" d="M17.63,146.91,4.72,134.16l.1,9.53-.13.74.19.19a76.18,76.18,0,0,0,11.77,9.73,1.32,1.32,0,0,0,.75.22,1.46,1.46,0,0,0,.68-.17,1.43,1.43,0,0,0,.73-1.24v-3.47A3.88,3.88,0,0,0,17.63,146.91ZM7.25,145.49a2.31,2.31,0,0,1,1.23-2.36h0a1.91,1.91,0,0,1,1.76.29,4.06,4.06,0,0,1,1.51,2,3.21,3.21,0,0,1-.53,3.63C10,148,8.64,146.78,7.25,145.49Zm10.56,7.67a.4.4,0,0,1-.39.41.36.36,0,0,1-.24-.07,52.62,52.62,0,0,1-5.2-3.82,4.22,4.22,0,0,0,.71-4.65,5.08,5.08,0,0,0-1.91-2.45,2.9,2.9,0,0,0-2.66-.39,3.06,3.06,0,0,0-1.8,2.43l-.56-.54v-.31l-.07-7.19,11.19,11a2.86,2.86,0,0,1,.88,2.06Z"/><path class="cls-3" d="M67.39,179.08a5.32,5.32,0,0,0-.32-2.65c-.85-2.21-2.83-3.5-4.44-2.88a3.22,3.22,0,0,0-1.73,3.36A48,48,0,0,0,67.39,179.08Z"/><path class="cls-1" d="M68.89,170.45l-16.4-3.55a1.85,1.85,0,0,0-2.2,1.42,1.72,1.72,0,0,0,0,.39v2.85A2.7,2.7,0,0,0,51.78,174c1.83.88,4.87,2.28,8,3.56h0l.19.07.4.15c3.56,1.42,7.17,2.61,9.23,2.61h0c2.12,0,4.4-1.38,4.4-5.22S69.21,170.51,68.89,170.45Zm-8.43,6.19c-.74-1.95-.26-3.95,1.09-4.46a2.27,2.27,0,0,1,2.05.33,4.72,4.72,0,0,1,1.73,2.26,4.22,4.22,0,0,1-.08,3.56c-1.47-.4-2.91-.87-4.33-1.41l-.4-.16Zm9.17,2.76h0a14.16,14.16,0,0,1-3.47-.64,5.32,5.32,0,0,0,.12-4.35,5.71,5.71,0,0,0-2.13-2.74,3.25,3.25,0,0,0-3-.43c-1.68.65-2.43,2.81-1.88,5-3-1.24-5.75-2.53-7.1-3.18a1.69,1.69,0,0,1-1-1.53v-2.85a.84.84,0,0,1,.32-.66.8.8,0,0,1,.53-.19.54.54,0,0,1,.18,0l16.41,3.55h0s4.33.81,4.33,3.74C73,177.86,71.8,179.4,69.63,179.4Z"/></g></svg>